<?xml version="1.0" encoding="utf-8"?>
<!-- Generator: Adobe Illustrator 19.0.0, SVG Export Plug-In . SVG Version: 6.00 Build 0)  -->
<svg version="1.1" id="Layer_1" xmlns="http://www.w3.org/2000/svg" xmlns:xlink="http://www.w3.org/1999/xlink" x="0px" y="0px"
	 viewBox="0 0 43 20" style="enable-background:new 0 0 43 20;" xml:space="preserve">
<style type="text/css">
	.st0{fill:none;stroke:#F15F21;stroke-width:1.2;stroke-linecap:round;stroke-linejoin:round;}
	.st1{filter:url(#Adobe_OpacityMaskFilter);}
	.st2{fill:#FFFFFF;}
	.st3{mask:url(#b);fill:none;stroke:#F15F21;stroke-width:1.2;stroke-linecap:round;stroke-linejoin:round;}
	.st4{fill:#FFFFFF;stroke:#F8AE1A;stroke-miterlimit:10;}
</style>
<g>
	<path class="st0" d="M1,19.4h33.8 M38,19.4h3.6"/>
	<g>
		<path class="st0" d="M26.5,2.5v13.9H6.2V2.5c0-1,0.8-1.8,1.8-1.8h16.7C25.7,0.7,26.5,1.5,26.5,2.5L26.5,2.5z"/>
		<defs>
			<filter id="Adobe_OpacityMaskFilter" filterUnits="userSpaceOnUse" x="3.8" y="15.8" width="25" height="4.9">
				<feColorMatrix  type="matrix" values="1 0 0 0 0  0 1 0 0 0  0 0 1 0 0  0 0 0 1 0"/>
			</filter>
		</defs>
		<mask maskUnits="userSpaceOnUse" x="3.8" y="15.8" width="25" height="4.9" id="b">
			<g class="st1">
				<path id="a" class="st2" d="M0,20h28.9V0H0V20z"/>
			</g>
		</mask>
		<path class="st3" d="M4.4,20.1h23.8v-3.7H4.4V20.1z"/>
		<path class="st4" d="M2.5,19.3c-1,0-1.8-0.8-1.8-1.8V7.3c0-1,0.8-1.8,1.8-1.8h5.8c1,0,1.8,0.8,1.8,1.8v10.1c0,1-0.8,1.8-1.8,1.8
			H2.5z"/>
	</g>
</g>
</svg>
