<?xml version="1.0" encoding="utf-8"?>
<!-- Generator: Adobe Illustrator 19.0.0, SVG Export Plug-In . SVG Version: 6.00 Build 0)  -->
<svg version="1.1" id="Layer_1" xmlns="http://www.w3.org/2000/svg" xmlns:xlink="http://www.w3.org/1999/xlink" x="0px" y="0px"
	 viewBox="-398 276.3 44 44" style="enable-background:new -398 276.3 44 44;" xml:space="preserve">
<style type="text/css">
	.st0{fill:#FFFFFF;}
	.st1{fill:none;stroke:#F15F21;stroke-width:1.2;stroke-linecap:round;stroke-linejoin:round;}
	.st2{fill:#F8AE1A;}
</style>
<g>
	<g transform="translate(9 10)">
		<g>
			<g>
				<path id="a" class="st0" d="M-397.2,285.6l8.7-8.8c0.3-0.4,0.8-0.6,1.4-0.6h6.8c1.1,0,1.9,0.9,1.9,2v6.8c0,0.5-0.2,1-0.6,1.4
					l-8.7,8.8c-0.7,0.7-1.9,0.8-2.7,0c0,0,0,0,0,0l-6.8-6.8c-0.4-0.4-0.6-0.9-0.6-1.4C-397.8,286.5-397.5,286-397.2,285.6
					L-397.2,285.6z"/>
			</g>
			<path class="st1" d="M-397.6,285.3l8.7-8.8c0.5-0.5,1.1-0.7,1.7-0.7h6.8c1.3,0,2.4,1.1,2.4,2.5v6.8c0,0.7-0.3,1.3-0.7,1.7
				l-8.7,8.8c-0.5,0.5-1.1,0.7-1.7,0.7c-0.6,0-1.3-0.3-1.7-0.7l-6.7-6.8c-0.5-0.5-0.7-1.1-0.7-1.7
				C-398.3,286.4-398,285.8-397.6,285.3z"/>
		</g>
		<ellipse class="st2" cx="-382.5" cy="280.4" rx="1.6" ry="1.6"/>
	</g>
	<g>
		<path class="st1" d="M-396,306.6h33.8 M-359,306.6h3.6"/>
	</g>
</g>
</svg>
