<?xml version="1.0" encoding="utf-8"?>
<!-- Generator: Adobe Illustrator 25.4.1, SVG Export Plug-In . SVG Version: 6.00 Build 0)  -->
<svg version="1.1" id="Layer_1" xmlns="http://www.w3.org/2000/svg" xmlns:xlink="http://www.w3.org/1999/xlink" x="0px" y="0px"
	 viewBox="0 0 100 100" style="enable-background:new 0 0 100 100;" xml:space="preserve">
<style type="text/css">
	.st0{fill:#FF0000;stroke:#FF0000;stroke-width:0.5;stroke-miterlimit:10;}
	.st1{fill-rule:evenodd;clip-rule:evenodd;fill:#FFFFFF;}
</style>
<circle class="st0" cx="50" cy="50" r="46.5"/>
<path class="st1" d="M56.8,70.1c0,1.3,0.2,2.2,0.5,3.1c0.3,0.7,0.7,1.4,1.3,1.8c0.6,0.5,1.3,0.7,2.2,0.9c0.9,0.2,1.9,0.3,3.1,0.3
	c1.9,0,3.6-0.2,5.2-0.6s2.9-0.8,4.1-1.3s2.1-0.9,3-1.3s1.4-0.6,1.8-0.6c0.6,0,1,0.2,1.3,0.6c0.4,0.4,0.5,0.8,0.5,1.5
	c0,1.2-0.1,2-0.4,2.5s-0.7,0.9-1.5,1.1c-2.7,0.9-5.6,1.7-9,2c-3.3,0.5-7,0.6-11.3,0.6c-3.1,0-5.6-0.1-7.7-0.4
	c-1.9-0.3-3.5-0.7-4.6-1.5c-1.1-0.7-1.9-1.7-2.3-2.9c-0.5-1.2-0.6-2.8-0.6-4.6v-1.8c4.8-0.7,9.5-2.1,13.9-4.4
	c0.1-0.1,0.3-0.2,0.4-0.2L56.8,70.1L56.8,70.1L56.8,70.1z M42.5,44.6V21.8c0-0.6-0.1-1.1-0.2-1.6c-0.2-0.4-0.4-0.6-0.6-0.9
	c-0.3-0.2-0.6-0.4-0.9-0.5c-0.4-0.1-0.7-0.1-1.2-0.1c-0.6,0-1.4,0.1-2.4,0.3c-0.9,0.2-1.9,0.5-3,0.9c-1,0.4-2.1,0.9-3.1,1.5
	s-2,1.3-2.9,2c-0.8,0.7-1.5,1.6-2,2.5s-0.8,1.9-0.8,3.1c0,0.9,0.1,1.7,0.4,2.2s0.6,0.9,0.8,1.3c0.3,0.3,0.6,0.5,1,0.6
	s0.6,0.1,0.7,0.1c0.7,0,1.3-0.1,1.8-0.4c0.5-0.3,0.9-0.6,1.3-0.8c0.4-0.3,0.7-0.6,1.1-0.8c0.4-0.3,0.7-0.4,1.2-0.4
	c0.4,0,0.7,0.1,1.1,0.3s0.7,0.4,1.1,0.7s0.6,0.8,0.8,1.4s0.4,1.3,0.4,2c0,1.2-0.2,2.1-0.6,3.1c-0.5,0.8-1,1.6-1.8,2.1
	c-0.7,0.6-1.6,1-2.4,1.3c-0.9,0.3-1.8,0.4-2.8,0.4c-1.4,0-2.7-0.3-3.8-0.7c-1.1-0.5-2-1.1-2.9-2c-0.8-0.8-1.4-1.8-1.8-3
	s-0.6-2.3-0.6-3.6c0-2,0.4-3.9,1.1-5.5c0.7-1.7,1.8-3.1,3-4.5c1.3-1.3,2.8-2.5,4.4-3.5c1.7-1,3.5-1.8,5.5-2.5
	c1.9-0.6,4.1-1.2,6.2-1.5c2.1-0.4,4.3-0.5,6.5-0.5c2.4,0,4.3,0.2,5.5,0.6s2.3,1,3,1.7c0.6,0.6,1,1.3,1.1,2s0.2,1.3,0.2,1.8v18
	c-3.9,0.7-7.7,2-11.4,4C44.5,43.4,43.4,44,42.5,44.6L42.5,44.6z"/>
<path class="st1" d="M24.8,67.7c10.9-20,26.5-31.2,50.5-26.8C65.4,62.9,48.2,71,24.8,67.7z"/>
</svg>
