<?xml version="1.0" encoding="utf-8"?>
<!-- Generator: Adobe Illustrator 19.0.0, SVG Export Plug-In . SVG Version: 6.00 Build 0)  -->
<svg version="1.1" id="Layer_1" xmlns="http://www.w3.org/2000/svg" xmlns:xlink="http://www.w3.org/1999/xlink" x="0px" y="0px"
	 viewBox="0 0 302.4 302.4" style="enable-background:new 0 0 302.4 302.4;" xml:space="preserve">
<style type="text/css">
	.st0{fill-rule:evenodd;clip-rule:evenodd;fill:#F5B01B;}
</style>
<path id="XMLID_1_" class="st0" d="M152.9,10c14.5,0,28.4,2.2,41.6,6.2C129.7,11.9,50.6,74,83.4,157.4c1.3,3.1,4.8,11.3,0.7,14.1
	c-9.7,8.4-24.3,18.2-40.6,34.3c-11.2,11,0,24,15.6,22.7c14.3-1.5,20.5-12,33.5-20.5c3.6-2,8.2-1.5,10.5,1.8
	c13.6,21.2,33.4,50.3,50.6,64.9c17.2,14.6,63.3,2.3,43.5-14.3c-28.3-23.8-48.9-54.5-60.5-75.5c-1.8-3.3-1-7.4,2-9.7
	c17.1-11.3,33.1-21.4,49.3-29.3c19.7-10,2.6-35.5-16.5-26.3c-14.9,7.4-24.2,12.1-45.5,24.3c-4.3,2.6-9.1-0.6-10.1-5.5
	c-10.9-44.6,16.7-93.6,92.1-92.3c11.4,0,21.7-6.1,23.4-12.8c38.9,25.5,64.5,69.5,64.5,119.5c0,78.9-64,142.9-142.9,142.9
	S10,231.8,10,152.9S74,10,152.9,10"/>
</svg>
