<?xml version="1.0" encoding="utf-8"?>
<!-- Generator: Adobe Illustrator 19.0.0, SVG Export Plug-In . SVG Version: 6.00 Build 0)  -->
<svg version="1.1" id="Layer_1" xmlns="http://www.w3.org/2000/svg" xmlns:xlink="http://www.w3.org/1999/xlink" x="0px" y="0px"
	 viewBox="50 98 612 318" style="enable-background:new 50 98 612 318;" xml:space="preserve">
<style type="text/css">
	.st0{fill-rule:evenodd;clip-rule:evenodd;fill:#F06022;}
	.st1{fill-rule:evenodd;clip-rule:evenodd;fill:#F5AE1B;}
</style>
<path class="st0" d="M645,168.6c1,3.1,1.8,6.6,2.2,10.3c2.5,26.2-16.9,49.6-43.1,52.1c-9.8,0.9-18.9-1.1-26.8-5.1
	c-3.9-2.2-5.7-6.9-3.9-11.2c4.9-11.3,11.3-27.2,14.1-35.6c0.2-1,1.3-0.5,1.4,0.5c4.5,18.6,9.2,29,16.6,30.5
	c14.4,3.1,28.8-20.4,35.9-41.6C641.9,166.8,644.5,166.8,645,168.6 M595.1,135.6c10.9-1,21.4,1.7,30.2,7.2c3.8,2.5,5.3,7.1,3.8,11.3
	c-5.1,14.6-19,44.9-22.8,36.4c-2.3-4.5-2.4-5.5-6.3-20.4c-3.9-14.2-21.3-13.3-25.6-0.1c-2.9,8.6-8.6,22.5-14,34.9
	c-0.7,1.4-2.7,1.4-3.6,0c-2.5-5.2-4.3-11-4.8-17C549.3,161.5,568.5,138.1,595.1,135.6z"/>
<path class="st1" d="M185.4,229.3c19.2-7.2,37.5-7.9,46.3,12.6c15.5,36-56.1,48.5-27.9,9.5c4.7-6.6,12.7-10.8,4.9-13.7
	c-10.1-3.7-23.3,6.6-27.9,15.4c-20.1,38.5,31.7,53,62.3,26.8c5.2-4.6,9.6-2.4,13.3-1.7c10.5,1.9,13.5-11.8,7.3-16
	c-2-1.5-4.7-2.9-5.9-7.1c-13.7-49.6-40.6-58.8-79-44.6C167.6,214.5,172.8,234,185.4,229.3 M562.9,248.5
	c8.3-20.5-16.1-23.5-23.6-10.2c-1.7,3-14.2,25.6-20.6,30.8c-15.6,12.7-36.1,12.4-32.7-3c2.2-10,21.7-35.9,22.1-42.7
	c0.5-7.9-15.3-17.2-26.8,0.8c-22.5,35-31.9,85.1,19.5,71.4c4.4-1.4,5.4-0.2,3.4,2.2c-21.5,25.9-52.7,43.1-76.9,53.2
	c-30.6,12.8-68.5,19.2-98.9,19.2c-47.3,0-97.8-12.8-138-39.6c-12.2-8.3-27,1.5-47.4-6.7c17.1,2.2,34.8-2.2,26.4-9.3
	c-18.7-15.7-32.3-36-40-49.9c-1.2-2.2-0.7-4.9,1.4-6.4c11.3-7.4,21.9-14.1,32.5-19.4c13-6.6,1.7-23.4-10.9-17.4
	c-9.8,4.9-16,8-30,16.1c-2.9,1.7-6-0.4-6.7-3.6c-5.6-28.2,10.3-61.3,58.3-60.8c15.9,0,30.6-20.3-6.9-22.3c-40-2-94.4,40.5-72.8,95.6
	c0.8,2,3.2,7.5,0.5,9.3c-6.4,5.6-16,12-26.8,22.6c-7.4,7.3,0,15.8,10.3,15c9.5-1,13.5-7.9,22.1-13.5c2.4-1.4,5.4-1,6.9,1.2
	c8.9,14,19.9,29.7,33.4,42.9c47.6,46.5,117.4,72.7,187.7,72.7C428.4,396.7,524.6,343.1,562.9,248.5z"/>
<path class="st1" d="M262.8,203.9c6.9,13.3,8.8,36.4,10.5,50.9c1.5,14.7,5.2,21.4,16.2,19.4c4.4-0.7,8.8-5.2,8.3-10.6
	c-0.7-12.3-3.1-34.3-3.8-41.6c-0.8-9.6,16.2-14.9,19.2-4.2c3,10.6,2.9,34.6,4.3,45c1.4,10.5,20.3,10.1,20.8-1.2
	c0.2-4.9,0.5-13.8,0.5-25c0.2-15.4,5.2-27.7,15.2-27.4c15.1,0,5.3,44.5,5,54.5c-0.3,9.8,19.1,12.8,20.8-1
	c1.4-10.6,3.9-23.6,4.2-33.2c2.5-50.4-38.8-54.3-54.4-29.4c-1.2,1.7-3.5,1.9-4.4-0.5c-8.6-16.2-25-16.7-35-3.2
	c-2.2,2.7-3.5,3.3-4.6,1.4C278,184.5,256.5,191.8,262.8,203.9"/>
<path class="st1" d="M404.7,196c-2.9,12.2-12.4,60.2-13.6,69.3c-1.5,11.1,17.1,15,19.8,3.9c3.4-13.2,13.9-57.5,16.1-68.6
	C429.7,188.4,407.6,184,404.7,196"/>
<path class="st1" d="M470,131c-5.7,15.2-38.8,113.7-45.4,132.8c-6.6,19.2,15.4,25,20.3,12.2c4.9-12.7,44.3-123,49.6-137.5
	C499.7,123.8,475.6,115.6,470,131"/>
<path class="st1" d="M422.6,154.2L422.6,154.2c0.2,0,0.2,0,0.2,0c2.4,0,4.4,0.5,6.4,1.7c2,1.2,3.5,2.5,4.7,4.6
	c1.2,2,1.7,3.9,1.7,6.2c0,2.4-0.5,4.2-1.7,6.2c-1.2,2-2.7,3.4-4.7,4.6c-2,1.2-4.1,1.7-6.4,1.7c-2.4,0-4.4-0.5-6.4-1.7
	c-2.2-1.2-3.5-2.5-4.9-4.6c-1.2-2-1.7-3.9-1.7-6.2c0-2.4,0.5-4.2,1.7-6.2c1.4-2,2.7-3.4,4.9-4.6
	C418.2,154.7,420.2,154.2,422.6,154.2"/>
</svg>
