<?xml version="1.0" encoding="utf-8"?>
<!-- Generator: Adobe Illustrator 19.0.0, SVG Export Plug-In . SVG Version: 6.00 Build 0)  -->
<svg version="1.1" id="Layer_1" xmlns="http://www.w3.org/2000/svg" xmlns:xlink="http://www.w3.org/1999/xlink" x="0px" y="0px"
	 viewBox="-398 276.3 44 44" style="enable-background:new -398 276.3 44 44;" xml:space="preserve">
<style type="text/css">
	.st0{fill:none;stroke:#F15F21;stroke-width:1.2;stroke-linecap:round;stroke-linejoin:round;}
	.st1{fill:#FFFFFF;}
	.st2{fill:#F8AE1A;}
</style>
<g id="ic_mobile">
	<g id="Group-2" transform="translate(2.000000, 7.000000)">
		<path id="Path-3" class="st0" d="M-398,303.7h33.8"/>
		<path id="Path-3_1_" class="st0" d="M-361,303.7h3.6"/>
		<g id="Rectangle-2">
			<g>
				<path id="path-1" class="st1" d="M-386,276.3h12c1.7,0,3,1.3,3,3v22c0,1.7-1.3,3-3,3h-12c-1.7,0-3-1.3-3-3v-22
					C-389,277.6-387.7,276.3-386,276.3z"/>
			</g>
			<path class="st0" d="M-385.5,276.8h11c1.7,0,3,1.3,3,3v21c0,1.7-1.3,3-3,3h-11c-1.7,0-3-1.3-3-3v-21
				C-388.5,278.1-387.2,276.8-385.5,276.8z"/>
		</g>
		<path id="Path-2" class="st0" d="M-388.5,298.1h17"/>
		<circle id="Oval-2" class="st2" cx="-379.5" cy="300.8" r="1.5"/>
		<path id="Path-4" class="st0" d="M-382,279.2h3"/>
	</g>
</g>
</svg>
