<?xml version="1.0" encoding="utf-8"?>
<!-- Generator: Adobe Illustrator 25.4.1, SVG Export Plug-In . SVG Version: 6.00 Build 0)  -->
<svg version="1.1" id="Layer_1" xmlns="http://www.w3.org/2000/svg" xmlns:xlink="http://www.w3.org/1999/xlink" x="0px" y="0px"
	 viewBox="0 0 227 169.3" style="enable-background:new 0 0 227 169.3;" xml:space="preserve">
<style type="text/css">
	.st0{fill-rule:evenodd;clip-rule:evenodd;fill:url(#SVGID_1_);}
	.st1{fill-rule:evenodd;clip-rule:evenodd;fill:url(#SVGID_00000161629313925026668150000015234181472252035224_);}
	.st2{fill:#FFFFFF;}
</style>
<g id="Layer_x0020_1">
	<g id="_2610847950160">
		
			<linearGradient id="SVGID_1_" gradientUnits="userSpaceOnUse" x1="17188.2109" y1="-14020.5723" x2="17236.0293" y2="-16560.7617" gradientTransform="matrix(2.834651e-02 0 0 -2.834651e-02 -375.0582 -397.3889)">
			<stop  offset="0" style="stop-color:#009846"/>
			<stop  offset="1" style="stop-color:#B0CB1F"/>
		</linearGradient>
		<path class="st0" d="M125.7,99.8c0,2.3,0.3,4.1,0.8,5.5c0.5,1.4,1.3,2.5,2.4,3.3c1,0.8,2.4,1.3,4,1.6c1.6,0.3,3.5,0.4,5.6,0.4
			c3.5,0,6.6-0.3,9.4-1c2.8-0.7,5.2-1.5,7.3-2.4c2.1-0.9,3.9-1.7,5.3-2.4c1.4-0.7,2.6-1.1,3.3-1.1c1,0,1.8,0.3,2.4,1
			c0.6,0.6,0.9,1.5,0.9,2.7c0,2.1-0.2,3.6-0.6,4.5c-0.4,0.9-1.3,1.6-2.6,2.1c-4.8,1.7-10.2,2.9-16.1,3.7c-6,0.8-12.8,1.2-20.3,1.2
			c-5.6,0-10.2-0.2-13.8-0.8c-3.6-0.5-6.4-1.4-8.4-2.6c-2.1-1.3-3.5-3-4.2-5.2c-0.8-2.2-1.2-5-1.2-8.4v-3.1
			c8.7-1.3,17.1-3.9,25.1-8.1c0.3-0.1,0.5-0.3,0.8-0.4L125.7,99.8L125.7,99.8z M99.9,53.9V12.6c0-1.2-0.1-2.1-0.4-2.8
			c-0.3-0.7-0.6-1.2-1.1-1.6c-0.5-0.4-1-0.6-1.7-0.8c-0.7-0.1-1.4-0.2-2.2-0.2c-1.2,0-2.6,0.2-4.3,0.5c-1.7,0.4-3.5,0.9-5.4,1.7
			c-1.9,0.7-3.8,1.6-5.7,2.7c-1.9,1.1-3.6,2.3-5.1,3.7c-1.5,1.4-2.7,2.9-3.7,4.6c-0.9,1.7-1.4,3.5-1.4,5.4c0,1.7,0.2,3,0.7,4
			c0.4,1,0.9,1.7,1.5,2.3c0.6,0.5,1.2,0.8,1.8,0.9c0.6,0.1,1,0.2,1.3,0.2c1.3,0,2.4-0.2,3.2-0.6c0.9-0.5,1.6-0.9,2.3-1.4
			c0.7-0.5,1.3-1,1.9-1.4c0.6-0.5,1.3-0.7,2.1-0.7c0.6,0,1.3,0.1,2,0.4c0.7,0.3,1.4,0.8,2,1.4c0.6,0.6,1.1,1.5,1.5,2.5
			c0.4,1,0.6,2.3,0.6,3.7c0,2.1-0.4,3.9-1.2,5.4c-0.8,1.5-1.9,2.8-3.1,3.8c-1.3,1-2.8,1.8-4.4,2.3c-1.7,0.5-3.3,0.8-4.9,0.8
			c-2.5,0-4.8-0.4-6.8-1.3c-2-0.9-3.7-2.1-5.2-3.6c-1.4-1.5-2.5-3.3-3.2-5.3c-0.7-2-1.1-4.2-1.1-6.5c0-3.6,0.6-6.9,2-10
			c1.3-3,3.1-5.7,5.4-8.1c2.3-2.4,4.9-4.5,8-6.3c3.1-1.8,6.4-3.3,9.9-4.5c3.6-1.2,7.3-2.1,11.2-2.7c3.9-0.6,7.8-0.9,11.7-0.9
			c4.3,0,7.7,0.4,10.1,1.2c2.4,0.8,4.1,1.8,5.3,2.9c1.1,1.2,1.8,2.4,2,3.6c0.2,1.3,0.3,2.3,0.3,3.1v32.5c-7,1.4-13.8,3.7-20.5,7.2
			C103.4,51.7,101.6,52.7,99.9,53.9z"/>
		
			<linearGradient id="SVGID_00000101806260571202579350000008620157920085623224_" gradientUnits="userSpaceOnUse" x1="18882.3848" y1="-15759.7949" x2="16893.0352" y2="-16704.3945" gradientTransform="matrix(2.834651e-02 0 0 -2.834651e-02 -375.0582 -397.3889)">
			<stop  offset="0" style="stop-color:#009846"/>
			<stop  offset="1" style="stop-color:#B0CB1F"/>
		</linearGradient>
		<path style="fill-rule:evenodd;clip-rule:evenodd;fill:url(#SVGID_00000101806260571202579350000008620157920085623224_);" d="
			M67.9,95.4c19.7-36.1,48-56.3,91.1-48.5C141.3,86.8,110.1,101.4,67.9,95.4z"/>
		<path class="st2" d="M18.3,145.4l0.5,0.1l-1.9,5.9H0v-0.6h0.8c0.9,0,1.6-0.3,2-0.9c0.2-0.3,0.3-1.1,0.3-2.4v-14.2
			c0-1.4-0.1-2.2-0.5-2.6c-0.4-0.5-1-0.7-1.9-0.7H0v-0.6h9.9v0.6c-1.2,0-2,0.1-2.4,0.3c-0.5,0.2-0.8,0.5-1,0.8
			c-0.2,0.3-0.3,1.2-0.3,2.4v13.8c0,0.9,0.1,1.5,0.3,1.8c0.1,0.2,0.3,0.4,0.6,0.5c0.3,0.1,1.1,0.2,2.5,0.2h1.6
			c1.7,0,2.9-0.1,3.5-0.4c0.7-0.2,1.3-0.7,1.9-1.3C17.2,147.7,17.7,146.7,18.3,145.4z M24.3,128.5c0.4,0,0.8,0.2,1.2,0.5
			c0.3,0.3,0.5,0.7,0.5,1.2c0,0.5-0.2,0.8-0.5,1.2c-0.3,0.3-0.7,0.5-1.2,0.5c-0.5,0-0.8-0.2-1.2-0.5c-0.3-0.3-0.5-0.7-0.5-1.2
			c0-0.4,0.2-0.8,0.5-1.2C23.5,128.6,23.9,128.5,24.3,128.5z M25.7,136.2v11.9c0,0.9,0.1,1.5,0.2,1.8c0.1,0.3,0.3,0.5,0.6,0.7
			c0.3,0.1,0.7,0.2,1.4,0.2v0.6h-7.2v-0.6c0.7,0,1.2-0.1,1.4-0.2c0.2-0.1,0.4-0.4,0.6-0.7c0.1-0.3,0.2-0.9,0.2-1.8v-5.7
			c0-1.6,0-2.6-0.1-3.1c-0.1-0.3-0.2-0.6-0.4-0.7c-0.2-0.1-0.4-0.2-0.7-0.2c-0.3,0-0.7,0.1-1.1,0.2l-0.2-0.6l4.4-1.8H25.7z
			 M35.5,137.8v9.7c0,1.4,0.1,2.2,0.5,2.6c0.4,0.5,0.9,0.7,1.6,0.7h1.3v0.6H30v-0.6h0.7c0.4,0,0.8-0.1,1.2-0.3
			c0.4-0.2,0.6-0.5,0.7-0.9c0.1-0.4,0.2-1.1,0.2-2.1v-9.7h-2.9v-1.2h2.9v-1c0-1.5,0.2-2.7,0.7-3.7c0.5-1,1.2-1.8,2.2-2.5
			c1-0.6,2.1-0.9,3.3-0.9c1.1,0,2.2,0.4,3.1,1.1c0.6,0.5,0.9,1,0.9,1.6c0,0.3-0.1,0.6-0.4,0.9c-0.3,0.3-0.6,0.4-0.9,0.4
			c-0.2,0-0.5-0.1-0.8-0.3c-0.3-0.2-0.6-0.6-1-1.1c-0.4-0.6-0.8-1-1.1-1.2c-0.3-0.2-0.7-0.3-1.1-0.3c-0.5,0-0.9,0.1-1.3,0.4
			c-0.3,0.3-0.6,0.7-0.7,1.2c-0.1,0.6-0.2,2-0.2,4.3v1.1h3.8v1.2L35.5,137.8L35.5,137.8z M43.2,142.2c0,2.2,0.5,3.9,1.6,5.1
			c1.1,1.2,2.3,1.9,3.8,1.9c1,0,1.8-0.3,2.5-0.8c0.7-0.5,1.3-1.4,1.8-2.7l0.5,0.3c-0.2,1.5-0.9,2.8-2,4c-1.1,1.2-2.4,1.8-4.1,1.8
			c-1.8,0-3.3-0.7-4.6-2.1c-1.3-1.4-1.9-3.2-1.9-5.6c0-2.5,0.6-4.5,1.9-5.9c1.3-1.4,2.9-2.1,4.9-2.1c1.7,0,3,0.5,4.1,1.6
			c1.1,1.1,1.6,2.5,1.6,4.4L43.2,142.2L43.2,142.2z M43.2,141.3H50c-0.1-0.9-0.2-1.6-0.3-2c-0.3-0.6-0.7-1.1-1.2-1.4
			c-0.5-0.3-1.1-0.5-1.7-0.5c-0.9,0-1.7,0.3-2.4,1C43.7,139.1,43.3,140,43.2,141.3L43.2,141.3z M62.7,136.2c2.2,0,4,0.8,5.4,2.5
			c1.2,1.4,1.7,3.1,1.7,5c0,1.3-0.3,2.7-1,4c-0.6,1.4-1.5,2.4-2.6,3.1c-1.1,0.7-2.4,1-3.7,1c-2.2,0-4-0.9-5.3-2.7
			c-1.1-1.5-1.7-3.2-1.7-5c0-1.4,0.3-2.7,1-4c0.7-1.3,1.6-2.3,2.7-3C60.3,136.5,61.4,136.2,62.7,136.2z M62.2,137.2
			c-0.6,0-1.1,0.2-1.7,0.5c-0.6,0.3-1,0.9-1.4,1.8c-0.4,0.8-0.5,1.9-0.5,3.3c0,2.1,0.4,4,1.3,5.6c0.9,1.6,2,2.3,3.4,2.3
			c1,0,1.9-0.4,2.6-1.3c0.7-0.9,1-2.3,1-4.4c0-2.6-0.6-4.7-1.7-6.2C64.3,137.8,63.3,137.2,62.2,137.2z M76.2,139.3
			c1.7-2.1,3.4-3.1,4.9-3.1c0.8,0,1.5,0.2,2.1,0.6c0.6,0.4,1,1.1,1.4,2c0.2,0.6,0.4,1.6,0.4,3v6.3c0,0.9,0.1,1.6,0.2,1.9
			c0.1,0.3,0.3,0.5,0.6,0.6c0.3,0.1,0.7,0.2,1.5,0.2v0.6h-7.3v-0.6h0.3c0.7,0,1.2-0.1,1.4-0.3c0.3-0.2,0.5-0.5,0.6-0.9
			c0-0.2,0.1-0.7,0.1-1.5V142c0-1.3-0.2-2.3-0.5-2.9c-0.3-0.6-0.9-0.9-1.8-0.9c-1.3,0-2.5,0.7-3.8,2.1v7.8c0,1,0.1,1.6,0.2,1.8
			c0.2,0.3,0.4,0.5,0.6,0.7c0.3,0.1,0.8,0.2,1.6,0.2v0.6h-7.3v-0.6h0.3c0.8,0,1.3-0.2,1.5-0.6c0.3-0.4,0.4-1.1,0.4-2.2v-5.5
			c0-1.8,0-2.9-0.1-3.2c-0.1-0.4-0.2-0.7-0.4-0.8c-0.2-0.1-0.4-0.2-0.7-0.2c-0.3,0-0.7,0.1-1.1,0.2l-0.2-0.6l4.5-1.8h0.7L76.2,139.3
			L76.2,139.3z M90.9,142.2c0,2.2,0.5,3.9,1.6,5.1c1.1,1.2,2.3,1.9,3.8,1.9c1,0,1.8-0.3,2.5-0.8c0.7-0.5,1.3-1.4,1.8-2.7l0.5,0.3
			c-0.2,1.5-0.9,2.8-2,4c-1.1,1.2-2.4,1.8-4.1,1.8c-1.8,0-3.3-0.7-4.6-2.1c-1.3-1.4-1.9-3.2-1.9-5.6c0-2.5,0.6-4.5,1.9-5.9
			c1.3-1.4,2.9-2.1,4.9-2.1c1.7,0,3,0.5,4.1,1.6c1.1,1.1,1.6,2.5,1.6,4.4L90.9,142.2L90.9,142.2z M90.9,141.3h6.8
			c-0.1-0.9-0.2-1.6-0.3-2c-0.3-0.6-0.7-1.1-1.2-1.4c-0.5-0.3-1.1-0.5-1.7-0.5c-0.9,0-1.7,0.3-2.4,1C91.4,139.1,91,140,90.9,141.3
			L90.9,141.3z M140.6,129.5v0.6c-0.6,0-1,0.1-1.4,0.3c-0.4,0.2-0.7,0.6-1,1.1c-0.2,0.4-0.6,1.3-1,2.7l-6.1,17.6h-0.6l-5-14l-4.9,14
			H120l-6.5-18.2c-0.5-1.4-0.8-2.2-0.9-2.4c-0.2-0.4-0.5-0.7-0.9-0.9c-0.4-0.2-0.9-0.3-1.5-0.3v-0.6h8.1v0.6h-0.4
			c-0.6,0-1,0.1-1.3,0.4c-0.3,0.3-0.5,0.6-0.5,0.9c0,0.4,0.2,1.2,0.7,2.6l4.3,12.3l3.6-10.4l-0.7-1.8l-0.5-1.5
			c-0.2-0.5-0.5-1-0.8-1.4c-0.1-0.2-0.3-0.4-0.5-0.5c-0.3-0.2-0.5-0.3-0.8-0.4c-0.2-0.1-0.5-0.1-1-0.1v-0.6h8.5v0.6h-0.6
			c-0.6,0-1,0.1-1.3,0.4c-0.3,0.3-0.4,0.6-0.4,1.1c0,0.6,0.2,1.5,0.7,2.9l4.2,11.9l4.2-12.1c0.5-1.3,0.7-2.3,0.7-2.8
			c0-0.2-0.1-0.5-0.2-0.7c-0.2-0.2-0.4-0.4-0.6-0.5c-0.4-0.1-0.9-0.2-1.6-0.2v-0.6L140.6,129.5L140.6,129.5z M141.7,142.2
			c0,2.2,0.5,3.9,1.6,5.1c1.1,1.2,2.3,1.9,3.8,1.9c1,0,1.8-0.3,2.5-0.8c0.7-0.5,1.3-1.4,1.8-2.7l0.5,0.3c-0.2,1.5-0.9,2.8-2,4
			c-1.1,1.2-2.4,1.8-4.1,1.8c-1.8,0-3.3-0.7-4.6-2.1c-1.3-1.4-1.9-3.2-1.9-5.6c0-2.5,0.6-4.5,1.9-5.9c1.3-1.4,2.9-2.1,4.9-2.1
			c1.7,0,3,0.5,4.1,1.6c1.1,1.1,1.6,2.5,1.6,4.4L141.7,142.2L141.7,142.2z M141.7,141.3h6.8c-0.1-0.9-0.2-1.6-0.3-2
			c-0.3-0.6-0.7-1.1-1.2-1.4c-0.5-0.3-1.1-0.5-1.7-0.5c-0.9,0-1.7,0.3-2.4,1C142.3,139.1,141.9,140,141.7,141.3L141.7,141.3z
			 M159,128.5v19.6c0,0.9,0.1,1.5,0.2,1.8c0.1,0.3,0.3,0.5,0.6,0.7c0.3,0.2,0.8,0.2,1.6,0.2v0.6h-7.2v-0.6c0.7,0,1.1-0.1,1.4-0.2
			c0.2-0.1,0.4-0.4,0.6-0.7c0.1-0.3,0.2-0.9,0.2-1.8v-13.4c0-1.7,0-2.7-0.1-3c-0.1-0.4-0.2-0.6-0.4-0.8c-0.2-0.1-0.4-0.2-0.6-0.2
			c-0.3,0-0.6,0.1-1.1,0.3l-0.3-0.6l4.4-1.8H159L159,128.5z M168.2,128.5v19.6c0,0.9,0.1,1.5,0.2,1.8c0.1,0.3,0.3,0.5,0.6,0.7
			c0.3,0.2,0.8,0.2,1.6,0.2v0.6h-7.2v-0.6c0.7,0,1.1-0.1,1.4-0.2c0.2-0.1,0.4-0.4,0.6-0.7c0.1-0.3,0.2-0.9,0.2-1.8v-13.4
			c0-1.7,0-2.7-0.1-3c-0.1-0.4-0.2-0.6-0.4-0.8c-0.2-0.1-0.4-0.2-0.6-0.2c-0.3,0-0.6,0.1-1.1,0.3l-0.3-0.6l4.4-1.8H168.2
			L168.2,128.5z M176.6,139.3c1.7-2.1,3.4-3.1,4.9-3.1c0.8,0,1.5,0.2,2.1,0.6c0.6,0.4,1,1.1,1.4,2c0.2,0.6,0.4,1.6,0.4,3v6.3
			c0,0.9,0.1,1.6,0.2,1.9c0.1,0.3,0.3,0.5,0.6,0.6c0.3,0.1,0.7,0.2,1.5,0.2v0.6h-7.3v-0.6h0.3c0.7,0,1.2-0.1,1.4-0.3
			c0.3-0.2,0.5-0.5,0.6-0.9c0-0.2,0.1-0.7,0.1-1.5V142c0-1.3-0.2-2.3-0.5-2.9c-0.3-0.6-0.9-0.9-1.8-0.9c-1.3,0-2.5,0.7-3.8,2.1v7.8
			c0,1,0.1,1.6,0.2,1.8c0.2,0.3,0.4,0.5,0.6,0.7c0.3,0.1,0.8,0.2,1.6,0.2v0.6h-7.3v-0.6h0.3c0.8,0,1.3-0.2,1.5-0.6
			c0.3-0.4,0.4-1.1,0.4-2.2v-5.5c0-1.8,0-2.9-0.1-3.2c-0.1-0.4-0.2-0.7-0.4-0.8c-0.2-0.1-0.4-0.2-0.7-0.2c-0.3,0-0.7,0.1-1.1,0.2
			l-0.2-0.6l4.5-1.8h0.7V139.3L176.6,139.3z M191.3,142.2c0,2.2,0.5,3.9,1.6,5.1c1.1,1.2,2.3,1.9,3.8,1.9c1,0,1.8-0.3,2.5-0.8
			c0.7-0.5,1.3-1.4,1.8-2.7l0.5,0.3c-0.2,1.5-0.9,2.8-2,4c-1.1,1.2-2.4,1.8-4.1,1.8c-1.8,0-3.3-0.7-4.6-2.1
			c-1.3-1.4-1.9-3.2-1.9-5.6c0-2.5,0.6-4.5,1.9-5.9c1.3-1.4,2.9-2.1,4.9-2.1c1.7,0,3,0.5,4.1,1.6c1.1,1.1,1.6,2.5,1.6,4.4
			L191.3,142.2L191.3,142.2z M191.3,141.3h6.8c-0.1-0.9-0.2-1.6-0.3-2c-0.3-0.6-0.7-1.1-1.2-1.4c-0.5-0.3-1.1-0.5-1.7-0.5
			c-0.9,0-1.7,0.3-2.4,1C191.8,139.1,191.4,140,191.3,141.3L191.3,141.3z M213,136.2v5h-0.5c-0.4-1.6-0.9-2.6-1.6-3.2
			c-0.6-0.6-1.4-0.9-2.4-0.9c-0.7,0-1.4,0.2-1.8,0.6c-0.5,0.4-0.7,0.8-0.7,1.3c0,0.6,0.2,1.1,0.5,1.5c0.3,0.4,1,0.9,2,1.4l2.4,1.1
			c2.2,1.1,3.3,2.5,3.3,4.2c0,1.3-0.5,2.4-1.5,3.2c-1,0.8-2.2,1.2-3.4,1.2c-0.9,0-1.9-0.2-3.1-0.5c-0.4-0.1-0.6-0.2-0.9-0.2
			c-0.2,0-0.4,0.1-0.6,0.4h-0.5v-5.3h0.5c0.3,1.5,0.9,2.6,1.7,3.4c0.8,0.8,1.8,1.1,2.9,1.1c0.7,0,1.3-0.2,1.8-0.6
			c0.5-0.4,0.7-1,0.7-1.6c0-0.7-0.3-1.4-0.8-1.9c-0.5-0.5-1.6-1.1-3.1-1.9c-1.6-0.8-2.6-1.5-3.1-2.1c-0.5-0.6-0.7-1.4-0.7-2.3
			c0-1.2,0.4-2.2,1.2-3.1c0.8-0.8,1.9-1.2,3.2-1.2c0.6,0,1.3,0.1,2.1,0.4c0.5,0.2,0.9,0.2,1.1,0.2c0.2,0,0.3,0,0.4-0.1
			c0.1-0.1,0.2-0.2,0.3-0.5H213L213,136.2z M225.8,136.2v5h-0.5c-0.4-1.6-0.9-2.6-1.6-3.2c-0.6-0.6-1.4-0.9-2.4-0.9
			c-0.7,0-1.4,0.2-1.8,0.6c-0.5,0.4-0.7,0.8-0.7,1.3c0,0.6,0.2,1.1,0.5,1.5c0.3,0.4,1,0.9,2,1.4l2.4,1.1c2.2,1.1,3.3,2.5,3.3,4.2
			c0,1.3-0.5,2.4-1.5,3.2c-1,0.8-2.2,1.2-3.4,1.2c-0.9,0-1.9-0.2-3.1-0.5c-0.4-0.1-0.6-0.2-0.9-0.2c-0.2,0-0.4,0.1-0.6,0.4H217v-5.3
			h0.5c0.3,1.5,0.9,2.6,1.7,3.4c0.8,0.8,1.8,1.1,2.9,1.1c0.7,0,1.3-0.2,1.8-0.6c0.5-0.4,0.7-1,0.7-1.6c0-0.7-0.3-1.4-0.8-1.9
			c-0.5-0.5-1.6-1.1-3.1-1.9c-1.6-0.8-2.6-1.5-3.1-2.1c-0.5-0.6-0.7-1.4-0.7-2.3c0-1.2,0.4-2.2,1.2-3.1c0.8-0.8,1.9-1.2,3.2-1.2
			c0.6,0,1.3,0.1,2.1,0.4c0.5,0.2,0.9,0.2,1.1,0.2c0.2,0,0.3,0,0.4-0.1c0.1-0.1,0.2-0.2,0.3-0.5H225.8L225.8,136.2z"/>
		<path class="st2" d="M24.1,161l0.2,2.7h-0.2c-0.2-0.8-0.6-1.4-1-1.7c-0.4-0.4-1-0.5-1.6-0.5c-0.5,0-1,0.1-1.4,0.4
			c-0.4,0.3-0.8,0.7-1,1.3c-0.2,0.6-0.4,1.3-0.4,2.2c0,0.7,0.1,1.3,0.3,1.9c0.2,0.5,0.6,0.9,1,1.2c0.5,0.3,1,0.4,1.6,0.4
			c0.5,0,1-0.1,1.3-0.3c0.4-0.2,0.8-0.7,1.3-1.3l0.2,0.1c-0.4,0.7-0.9,1.2-1.4,1.5c-0.5,0.3-1.2,0.5-1.9,0.5c-1.3,0-2.3-0.5-3-1.5
			c-0.5-0.7-0.8-1.6-0.8-2.5c0-0.8,0.2-1.5,0.5-2.2c0.4-0.7,0.8-1.2,1.5-1.5c0.6-0.4,1.3-0.5,2-0.5c0.6,0,1.1,0.1,1.7,0.4
			c0.2,0.1,0.3,0.1,0.3,0.1c0.1,0,0.2,0,0.3-0.1c0.1-0.1,0.2-0.3,0.2-0.4L24.1,161L24.1,161z M33.1,164.9h3.7v-2.3
			c0-0.4,0-0.7-0.1-0.8c0-0.1-0.1-0.2-0.2-0.2c-0.2-0.1-0.3-0.1-0.5-0.1h-0.3v-0.2h3.4v0.2h-0.3c-0.2,0-0.4,0-0.5,0.1
			c-0.1,0.1-0.2,0.2-0.3,0.3c0,0.1-0.1,0.4-0.1,0.8v5.1c0,0.4,0,0.7,0.1,0.8c0,0.1,0.1,0.2,0.2,0.3c0.2,0.1,0.3,0.1,0.5,0.1h0.3v0.2
			h-3.4v-0.2H36c0.3,0,0.6-0.1,0.7-0.3c0.1-0.1,0.1-0.4,0.1-0.9v-2.4h-3.7v2.4c0,0.4,0,0.7,0.1,0.8c0,0.1,0.1,0.2,0.2,0.3
			c0.2,0.1,0.3,0.1,0.5,0.1h0.3v0.2h-3.4v-0.2h0.3c0.3,0,0.6-0.1,0.7-0.3c0.1-0.1,0.1-0.4,0.1-0.9v-5.1c0-0.4,0-0.7-0.1-0.8
			c0-0.1-0.1-0.2-0.2-0.2c-0.2-0.1-0.3-0.1-0.5-0.1h-0.3v-0.2h3.4v0.2H34c-0.2,0-0.4,0-0.5,0.1c-0.1,0.1-0.2,0.2-0.3,0.3
			c0,0.1-0.1,0.4-0.1,0.8C33.1,162.6,33.1,164.9,33.1,164.9z M50.6,166.5h-3.1l-0.5,1.2c-0.1,0.3-0.2,0.5-0.2,0.7
			c0,0.1,0.1,0.2,0.2,0.3c0.1,0.1,0.4,0.1,0.7,0.2v0.2h-2.5v-0.2c0.3-0.1,0.5-0.1,0.6-0.2c0.2-0.2,0.4-0.6,0.7-1.1l2.8-6.5h0.2
			l2.7,6.6c0.2,0.5,0.4,0.9,0.6,1c0.2,0.2,0.4,0.2,0.8,0.3v0.2h-3.1v-0.2c0.3,0,0.5-0.1,0.6-0.2c0.1-0.1,0.2-0.2,0.2-0.3
			c0-0.2-0.1-0.4-0.2-0.8L50.6,166.5z M50.4,166.1l-1.3-3.2l-1.4,3.2C47.7,166.1,50.4,166.1,50.4,166.1z M59.4,161.2h2.1l4.8,5.9
			v-4.6c0-0.5-0.1-0.8-0.2-0.9c-0.1-0.2-0.4-0.2-0.7-0.2h-0.3v-0.2H68v0.2h-0.3c-0.3,0-0.6,0.1-0.7,0.3c-0.1,0.1-0.1,0.4-0.1,0.9
			v6.7h-0.2l-5.2-6.4v4.9c0,0.5,0.1,0.8,0.2,0.9c0.1,0.2,0.4,0.2,0.7,0.2h0.3v0.2h-2.8v-0.2h0.3c0.3,0,0.6-0.1,0.7-0.3
			c0.1-0.1,0.1-0.4,0.1-0.9v-5.5c-0.2-0.3-0.4-0.4-0.5-0.5c-0.1-0.1-0.3-0.2-0.5-0.2c-0.1,0-0.3-0.1-0.5-0.1V161.2L59.4,161.2z
			 M81.3,161l0.2,2.5h-0.2c-0.2-0.6-0.5-1.1-0.8-1.4c-0.5-0.5-1.1-0.7-1.8-0.7c-1,0-1.8,0.4-2.3,1.2c-0.4,0.7-0.7,1.5-0.7,2.4
			c0,0.8,0.1,1.4,0.4,2.1c0.3,0.6,0.7,1.1,1.1,1.4c0.5,0.3,1,0.4,1.5,0.4c0.3,0,0.6,0,0.8-0.1c0.3-0.1,0.5-0.2,0.8-0.3v-2.3
			c0-0.4,0-0.7-0.1-0.8c-0.1-0.1-0.2-0.2-0.3-0.3c-0.1-0.1-0.3-0.1-0.7-0.1v-0.2h3v0.2h-0.1c-0.3,0-0.5,0.1-0.6,0.3
			c-0.1,0.1-0.1,0.4-0.1,0.9v2.4c-0.4,0.2-0.9,0.4-1.3,0.5c-0.4,0.1-0.9,0.2-1.4,0.2c-1.5,0-2.7-0.5-3.5-1.5
			c-0.6-0.7-0.9-1.6-0.9-2.5c0-0.7,0.2-1.4,0.5-2c0.4-0.8,0.9-1.3,1.6-1.7c0.6-0.3,1.3-0.5,2-0.5c0.3,0,0.5,0,0.8,0.1
			c0.2,0,0.6,0.1,1,0.3c0.2,0.1,0.4,0.1,0.4,0.1s0.1,0,0.2-0.1c0.1-0.1,0.1-0.2,0.1-0.4L81.3,161L81.3,161z M91,161.6v3.1h1.7
			c0.5,0,0.8-0.1,0.9-0.2c0.2-0.2,0.3-0.5,0.3-0.9h0.2v2.8H94c-0.1-0.4-0.1-0.6-0.2-0.7c-0.1-0.1-0.2-0.2-0.3-0.3
			c-0.2-0.1-0.4-0.1-0.7-0.1H91v2.6c0,0.3,0,0.6,0,0.6c0,0.1,0.1,0.1,0.2,0.2c0.1,0,0.2,0.1,0.4,0.1H93c0.4,0,0.8,0,1-0.1
			c0.2-0.1,0.4-0.2,0.6-0.4c0.2-0.2,0.5-0.6,0.7-1.1h0.2l-0.7,2h-6.1v-0.2H89c0.2,0,0.4,0,0.5-0.1c0.1-0.1,0.2-0.2,0.3-0.3
			c0-0.1,0.1-0.4,0.1-0.8v-5.1c0-0.5,0-0.8-0.2-0.9c-0.1-0.2-0.4-0.2-0.7-0.2h-0.3v-0.2h6.1l0.1,1.7h-0.2c-0.1-0.4-0.2-0.7-0.3-0.9
			c-0.1-0.2-0.2-0.3-0.4-0.4c-0.2-0.1-0.4-0.1-0.8-0.1C93.1,161.6,91,161.6,91,161.6z M109.8,161.2h2.8v0.2h-0.2
			c-0.1,0-0.2,0-0.4,0.1c-0.2,0.1-0.4,0.2-0.5,0.4c-0.2,0.2-0.4,0.4-0.6,0.8l-1.9,3v2c0,0.5,0.1,0.8,0.2,0.9
			c0.1,0.2,0.4,0.2,0.7,0.2h0.3v0.2h-3.4v-0.2h0.3c0.3,0,0.6-0.1,0.7-0.3c0.1-0.1,0.1-0.4,0.1-0.9v-1.8l-2.2-3.3
			c-0.3-0.4-0.4-0.6-0.5-0.7c-0.1-0.1-0.3-0.2-0.6-0.3c-0.1,0-0.2-0.1-0.3-0.1v-0.2h3.4v0.2h-0.2c-0.2,0-0.4,0-0.5,0.1
			c-0.2,0.1-0.2,0.2-0.2,0.4c0,0.1,0.1,0.4,0.4,0.8l1.6,2.5l1.6-2.4c0.2-0.4,0.3-0.6,0.3-0.8c0-0.1,0-0.2-0.1-0.3
			c-0.1-0.1-0.1-0.2-0.2-0.2c-0.1,0-0.3-0.1-0.5-0.1V161.2L109.8,161.2z M122.9,161c1,0,1.9,0.4,2.7,1.2c0.8,0.8,1.1,1.7,1.1,2.9
			c0,1.2-0.4,2.2-1.1,3c-0.8,0.8-1.7,1.2-2.7,1.2c-1.1,0-2-0.4-2.7-1.2c-0.7-0.8-1.1-1.8-1.1-3c0-1.3,0.4-2.3,1.3-3.1
			C121,161.4,121.9,161,122.9,161z M122.8,161.5c-0.7,0-1.3,0.3-1.7,0.8c-0.5,0.7-0.8,1.6-0.8,2.9c0,1.3,0.3,2.3,0.8,3
			c0.4,0.5,1,0.8,1.7,0.8c0.7,0,1.3-0.3,1.8-0.9c0.5-0.6,0.7-1.5,0.7-2.7c0-1.4-0.3-2.4-0.8-3C124.2,161.7,123.6,161.5,122.8,161.5
			L122.8,161.5z M138.7,161.4v-0.2h2.8v0.2h-0.3c-0.3,0-0.5,0.1-0.7,0.4c-0.1,0.1-0.1,0.4-0.1,0.8v3.2c0,0.8-0.1,1.4-0.2,1.8
			c-0.2,0.4-0.5,0.8-0.9,1.1c-0.5,0.3-1.1,0.5-1.9,0.5c-0.9,0-1.5-0.1-2-0.4c-0.4-0.3-0.8-0.7-0.9-1.2c-0.1-0.3-0.2-1-0.2-1.9v-3.1
			c0-0.5-0.1-0.8-0.2-1c-0.1-0.2-0.3-0.2-0.6-0.2h-0.3v-0.2h3.4v0.2h-0.3c-0.3,0-0.6,0.1-0.7,0.3c-0.1,0.1-0.1,0.4-0.1,0.9v3.4
			c0,0.3,0,0.7,0.1,1.1c0.1,0.4,0.2,0.7,0.3,0.9c0.1,0.2,0.4,0.4,0.6,0.5c0.3,0.1,0.6,0.2,1,0.2c0.5,0,1-0.1,1.4-0.3
			c0.4-0.2,0.7-0.5,0.8-0.9c0.1-0.4,0.2-0.9,0.2-1.8v-3.2c0-0.5-0.1-0.8-0.2-0.9c-0.2-0.2-0.4-0.3-0.7-0.3H138.7L138.7,161.4z
			 M155.5,169.1h-2.1l-2.7-3.7c-0.2,0-0.3,0-0.5,0c0,0-0.1,0-0.2,0c-0.1,0-0.1,0-0.2,0v2.3c0,0.5,0.1,0.8,0.2,0.9
			c0.1,0.2,0.4,0.3,0.7,0.3h0.3v0.2h-3.4v-0.2h0.3c0.3,0,0.6-0.1,0.7-0.3c0.1-0.1,0.1-0.4,0.1-0.9v-5.1c0-0.5-0.1-0.8-0.2-0.9
			c-0.2-0.2-0.4-0.3-0.7-0.3h-0.3v-0.2h2.9c0.8,0,1.5,0.1,1.9,0.2c0.4,0.1,0.7,0.3,1,0.7c0.3,0.3,0.4,0.7,0.4,1.2
			c0,0.5-0.2,0.9-0.5,1.3c-0.3,0.4-0.8,0.6-1.5,0.8l1.6,2.3c0.4,0.5,0.7,0.9,1,1c0.3,0.2,0.6,0.3,1,0.3V169.1L155.5,169.1z
			 M149.9,165.1c0.1,0,0.1,0,0.2,0c0.1,0,0.1,0,0.1,0c0.7,0,1.3-0.2,1.7-0.5c0.4-0.3,0.6-0.7,0.6-1.2c0-0.5-0.2-0.9-0.5-1.2
			c-0.3-0.3-0.7-0.5-1.2-0.5c-0.2,0-0.5,0-0.9,0.1L149.9,165.1L149.9,165.1z M174.1,166.9l0.2,0l-0.7,2.1h-6.1v-0.2h0.3
			c0.3,0,0.6-0.1,0.7-0.3c0.1-0.1,0.1-0.4,0.1-0.9v-5.1c0-0.5-0.1-0.8-0.2-0.9c-0.2-0.2-0.4-0.3-0.7-0.3h-0.3v-0.2h3.6v0.2
			c-0.4,0-0.7,0-0.9,0.1c-0.2,0.1-0.3,0.2-0.3,0.3c-0.1,0.1-0.1,0.4-0.1,0.9v5c0,0.3,0,0.5,0.1,0.7c0,0.1,0.1,0.1,0.2,0.2
			c0.1,0,0.4,0.1,0.9,0.1h0.6c0.6,0,1,0,1.3-0.1c0.2-0.1,0.5-0.2,0.7-0.5C173.7,167.8,173.9,167.4,174.1,166.9L174.1,166.9z
			 M184,168.9v0.2h-3.4v-0.2h0.3c0.3,0,0.6-0.1,0.7-0.3c0.1-0.1,0.1-0.4,0.1-0.9v-5.1c0-0.4,0-0.7-0.1-0.8c0-0.1-0.1-0.2-0.2-0.2
			c-0.2-0.1-0.3-0.1-0.5-0.1h-0.3v-0.2h3.4v0.2h-0.3c-0.3,0-0.6,0.1-0.7,0.3c-0.1,0.1-0.1,0.4-0.1,0.9v5.1c0,0.4,0,0.7,0.1,0.8
			c0,0.1,0.1,0.2,0.2,0.3c0.2,0.1,0.3,0.1,0.5,0.1H184z M192.6,161.6v3.1h1.4c0.3,0,0.6-0.1,0.7-0.2c0.2-0.1,0.3-0.4,0.3-0.9h0.2
			v2.7h-0.2c0-0.3,0-0.5-0.1-0.7c-0.1-0.1-0.2-0.3-0.3-0.3c-0.1-0.1-0.3-0.1-0.6-0.1h-1.4v2.5c0,0.4,0,0.7,0.1,0.8
			c0,0.1,0.1,0.2,0.2,0.3c0.2,0.1,0.3,0.1,0.5,0.1h0.3v0.2h-3.4v-0.2h0.3c0.3,0,0.6-0.1,0.7-0.3c0.1-0.1,0.1-0.4,0.1-0.9v-5.1
			c0-0.4,0-0.7-0.1-0.8c0-0.1-0.1-0.2-0.2-0.2c-0.2-0.1-0.3-0.1-0.5-0.1h-0.3v-0.2h5.9l0.1,1.7h-0.2c-0.1-0.4-0.2-0.6-0.4-0.8
			c-0.1-0.2-0.3-0.3-0.5-0.4c-0.2-0.1-0.5-0.1-0.9-0.1L192.6,161.6L192.6,161.6z M205.1,161.6v3.1h1.7c0.5,0,0.8-0.1,0.9-0.2
			c0.2-0.2,0.3-0.5,0.3-0.9h0.2v2.8h-0.2c-0.1-0.4-0.1-0.6-0.2-0.7c-0.1-0.1-0.2-0.2-0.3-0.3c-0.2-0.1-0.4-0.1-0.7-0.1h-1.7v2.6
			c0,0.3,0,0.6,0,0.6c0,0.1,0.1,0.1,0.2,0.2c0.1,0,0.2,0.1,0.4,0.1h1.3c0.4,0,0.8,0,1-0.1c0.2-0.1,0.4-0.2,0.6-0.4
			c0.2-0.2,0.5-0.6,0.7-1.1h0.2l-0.7,2h-6.1v-0.2h0.3c0.2,0,0.4,0,0.5-0.1c0.1-0.1,0.2-0.2,0.3-0.3c0-0.1,0.1-0.4,0.1-0.8v-5.1
			c0-0.5,0-0.8-0.2-0.9c-0.1-0.2-0.4-0.2-0.7-0.2h-0.3v-0.2h6.1l0.1,1.7h-0.2c-0.1-0.4-0.2-0.7-0.3-0.9c-0.1-0.2-0.2-0.3-0.4-0.4
			c-0.2-0.1-0.4-0.1-0.8-0.1H205.1L205.1,161.6z"/>
	</g>
</g>
</svg>
