<?xml version="1.0" encoding="utf-8"?>
<!-- Generator: Adobe Illustrator 25.4.1, SVG Export Plug-In . SVG Version: 6.00 Build 0)  -->
<svg version="1.1" id="Layer_1" xmlns="http://www.w3.org/2000/svg" xmlns:xlink="http://www.w3.org/1999/xlink" x="0px" y="0px"
	 viewBox="0 0 213.3 169.3" style="enable-background:new 0 0 213.3 169.3;" xml:space="preserve">
<style type="text/css">
	.st0{fill-rule:evenodd;clip-rule:evenodd;fill:url(#SVGID_1_);}
	.st1{fill-rule:evenodd;clip-rule:evenodd;fill:url(#SVGID_00000036962064815856417360000013988484039976450433_);}
	.st2{fill:#007438;}
	.st3{fill:#2B2A29;}
</style>
<g id="Layer_x0020_1">
	<g id="_2610847950160">
		
			<linearGradient id="SVGID_1_" gradientUnits="userSpaceOnUse" x1="16859.0352" y1="-14322.0664" x2="16902.0254" y2="-16605.6504" gradientTransform="matrix(2.834651e-02 0 0 -2.834651e-02 -375.0582 -397.3889)">
			<stop  offset="0" style="stop-color:#009846"/>
			<stop  offset="1" style="stop-color:#B0CB1F"/>
		</linearGradient>
		<path class="st0" d="M115,98.3c0,2,0.2,3.7,0.7,4.9c0.5,1.2,1.2,2.2,2.2,2.9c0.9,0.7,2.2,1.2,3.6,1.4c1.4,0.3,3.1,0.4,5.1,0.4
			c3.1,0,5.9-0.3,8.4-0.9c2.5-0.7,4.7-1.4,6.6-2.1c1.9-0.8,3.5-1.5,4.8-2.2c1.3-0.7,2.3-1,3-1c0.9,0,1.6,0.3,2.1,0.9
			c0.5,0.6,0.8,1.4,0.8,2.5c0,1.9-0.2,3.2-0.6,4.1c-0.4,0.8-1.2,1.4-2.3,1.9c-4.3,1.5-9.1,2.6-14.5,3.4c-5.4,0.7-11.5,1.1-18.3,1.1
			c-5,0-9.2-0.2-12.4-0.7c-3.2-0.5-5.7-1.2-7.6-2.4c-1.9-1.1-3.1-2.7-3.8-4.6c-0.7-2-1-4.5-1-7.5v-2.8c7.8-1.2,15.4-3.5,22.5-7.3
			c0.2-0.1,0.5-0.2,0.7-0.4L115,98.3L115,98.3z M91.8,57V19.9c0-1-0.1-1.9-0.3-2.5c-0.2-0.6-0.6-1.1-1-1.4c-0.4-0.3-0.9-0.6-1.5-0.7
			c-0.6-0.1-1.3-0.2-2-0.2c-1,0-2.3,0.1-3.9,0.5c-1.5,0.3-3.1,0.8-4.8,1.5c-1.7,0.7-3.4,1.5-5.1,2.4c-1.7,1-3.2,2.1-4.6,3.3
			c-1.4,1.2-2.4,2.6-3.3,4.1C64.4,28.4,64,30,64,31.8c0,1.5,0.2,2.7,0.6,3.6c0.4,0.9,0.8,1.6,1.4,2c0.5,0.4,1,0.7,1.6,0.8
			c0.5,0.1,0.9,0.2,1.2,0.2c1.2,0,2.2-0.2,2.9-0.6c0.8-0.4,1.4-0.8,2.1-1.3c0.6-0.5,1.2-0.9,1.7-1.3c0.6-0.4,1.2-0.6,1.9-0.6
			c0.6,0,1.2,0.1,1.8,0.4c0.7,0.3,1.2,0.7,1.8,1.3c0.5,0.6,1,1.3,1.4,2.2c0.4,0.9,0.6,2,0.6,3.4c0,1.9-0.4,3.5-1.1,4.9
			c-0.7,1.4-1.7,2.5-2.8,3.4c-1.2,0.9-2.5,1.6-4,2.1c-1.5,0.5-3,0.7-4.4,0.7c-2.2,0-4.3-0.4-6.1-1.2c-1.8-0.8-3.4-1.9-4.6-3.2
			c-1.3-1.4-2.2-3-2.9-4.8c-0.7-1.8-1-3.8-1-5.9c0-3.3,0.6-6.2,1.8-9c1.2-2.7,2.8-5.1,4.9-7.3c2.1-2.2,4.4-4.1,7.2-5.7
			c2.8-1.6,5.8-3,8.9-4.1c3.2-1.1,6.6-1.9,10.1-2.4c3.5-0.6,7-0.8,10.5-0.8c3.9,0,6.9,0.4,9,1.1c2.1,0.7,3.7,1.6,4.7,2.6
			c1,1,1.6,2.1,1.8,3.3c0.2,1.1,0.3,2.1,0.3,2.8v29.3c-6.3,1.2-12.4,3.3-18.4,6.5C94.9,55,93.3,56,91.8,57z"/>
		
			<linearGradient id="SVGID_00000099649526900523745000000015669632838487790008_" gradientUnits="userSpaceOnUse" x1="18382.0684" y1="-15885.5957" x2="16593.6777" y2="-16734.7734" gradientTransform="matrix(2.834651e-02 0 0 -2.834651e-02 -375.0582 -397.3889)">
			<stop  offset="0" style="stop-color:#009846"/>
			<stop  offset="1" style="stop-color:#B0CB1F"/>
		</linearGradient>
		<path style="fill-rule:evenodd;clip-rule:evenodd;fill:url(#SVGID_00000099649526900523745000000015669632838487790008_);" d="
			M63.1,94.3c17.7-32.5,43.1-50.6,81.9-43.6C129,86.6,101,99.7,63.1,94.3z"/>
		<path class="st2" d="M18.5,139.2l0.5,0.1l-1.7,5.3H2v-0.5h0.7c0.8,0,1.4-0.3,1.8-0.8c0.2-0.3,0.3-1,0.3-2.1v-12.7
			c0-1.2-0.1-2-0.4-2.3c-0.4-0.4-0.9-0.6-1.7-0.6H2V125h8.9v0.5c-1,0-1.8,0.1-2.2,0.3c-0.4,0.2-0.7,0.5-0.9,0.8
			c-0.2,0.3-0.2,1-0.2,2.2v12.4c0,0.8,0.1,1.4,0.2,1.7c0.1,0.2,0.3,0.4,0.5,0.5c0.2,0.1,1,0.1,2.3,0.1h1.4c1.5,0,2.6-0.1,3.2-0.3
			c0.6-0.2,1.2-0.6,1.7-1.2C17.4,141.3,17.9,140.5,18.5,139.2z M23.9,124c0.4,0,0.7,0.1,1,0.4c0.3,0.3,0.4,0.6,0.4,1
			c0,0.4-0.1,0.8-0.4,1c-0.3,0.3-0.6,0.4-1,0.4c-0.4,0-0.8-0.1-1-0.4c-0.3-0.3-0.4-0.6-0.4-1c0-0.4,0.1-0.7,0.4-1
			C23.1,124.2,23.5,124,23.9,124z M25.1,131v10.7c0,0.8,0.1,1.4,0.2,1.6c0.1,0.3,0.3,0.5,0.5,0.6c0.2,0.1,0.7,0.2,1.3,0.2v0.5h-6.4
			v-0.5c0.6,0,1.1-0.1,1.3-0.2c0.2-0.1,0.4-0.3,0.5-0.6c0.1-0.3,0.2-0.8,0.2-1.7v-5.1c0-1.4,0-2.4-0.1-2.8c-0.1-0.3-0.2-0.5-0.3-0.6
			c-0.1-0.1-0.3-0.2-0.6-0.2c-0.3,0-0.6,0.1-1,0.2l-0.2-0.5l4-1.6H25.1z M33.9,132.4v8.8c0,1.2,0.1,2,0.4,2.3
			c0.4,0.4,0.8,0.6,1.4,0.6H37v0.5h-8v-0.5h0.6c0.4,0,0.7-0.1,1.1-0.3c0.3-0.2,0.5-0.5,0.7-0.8c0.1-0.3,0.2-1,0.2-1.9v-8.8h-2.6v-1
			h2.6v-0.9c0-1.3,0.2-2.4,0.6-3.4c0.4-0.9,1.1-1.7,2-2.2c0.9-0.6,1.9-0.8,3-0.8c1,0,2,0.3,2.8,1c0.6,0.4,0.8,0.9,0.8,1.4
			c0,0.3-0.1,0.6-0.4,0.8c-0.3,0.3-0.5,0.4-0.8,0.4c-0.2,0-0.5-0.1-0.7-0.2c-0.2-0.2-0.5-0.5-0.9-1c-0.4-0.5-0.7-0.9-1-1.1
			c-0.3-0.2-0.6-0.3-1-0.3c-0.4,0-0.8,0.1-1.1,0.4c-0.3,0.2-0.5,0.6-0.7,1.1c-0.1,0.5-0.2,1.8-0.2,3.8v1h3.4v1L33.9,132.4
			L33.9,132.4z M40.8,136.4c0,2,0.5,3.5,1.4,4.6c1,1.1,2.1,1.7,3.4,1.7c0.9,0,1.6-0.2,2.3-0.7c0.6-0.5,1.2-1.3,1.6-2.5l0.4,0.3
			c-0.2,1.3-0.8,2.5-1.8,3.6c-1,1.1-2.2,1.6-3.7,1.6c-1.6,0-3-0.6-4.1-1.9c-1.1-1.2-1.7-2.9-1.7-5c0-2.3,0.6-4,1.7-5.3
			c1.2-1.3,2.6-1.9,4.4-1.9c1.5,0,2.7,0.5,3.7,1.5c1,1,1.4,2.3,1.4,3.9L40.8,136.4L40.8,136.4z M40.8,135.6H47
			c0-0.9-0.1-1.4-0.3-1.8c-0.2-0.5-0.6-1-1.1-1.3c-0.5-0.3-1-0.5-1.5-0.5c-0.8,0-1.5,0.3-2.2,0.9C41.3,133.6,40.9,134.4,40.8,135.6
			L40.8,135.6z M58.3,131c2,0,3.6,0.8,4.8,2.3c1,1.3,1.6,2.8,1.6,4.5c0,1.2-0.3,2.4-0.9,3.6c-0.6,1.2-1.4,2.1-2.4,2.8
			c-1,0.6-2.1,0.9-3.3,0.9c-2,0-3.6-0.8-4.8-2.4c-1-1.3-1.5-2.9-1.5-4.5c0-1.2,0.3-2.4,0.9-3.6c0.6-1.2,1.4-2.1,2.4-2.7
			C56.2,131.3,57.2,131,58.3,131z M57.9,131.9c-0.5,0-1,0.2-1.5,0.5c-0.5,0.3-0.9,0.8-1.3,1.6c-0.3,0.8-0.5,1.7-0.5,2.9
			c0,1.9,0.4,3.6,1.2,5c0.8,1.4,1.8,2.1,3,2.1c0.9,0,1.7-0.4,2.3-1.2c0.6-0.8,0.9-2.1,0.9-4c0-2.4-0.5-4.2-1.5-5.6
			C59.8,132.4,58.9,131.9,57.9,131.9z M70.5,133.8c1.6-1.9,3-2.8,4.4-2.8c0.7,0,1.3,0.2,1.9,0.5c0.5,0.4,0.9,1,1.2,1.8
			c0.2,0.6,0.3,1.5,0.3,2.7v5.7c0,0.8,0.1,1.4,0.2,1.7c0.1,0.2,0.3,0.4,0.5,0.6c0.2,0.1,0.7,0.2,1.3,0.2v0.5h-6.6v-0.5h0.3
			c0.6,0,1-0.1,1.3-0.3c0.2-0.2,0.4-0.5,0.5-0.8c0-0.1,0.1-0.6,0.1-1.4v-5.5c0-1.2-0.2-2.1-0.5-2.6c-0.3-0.5-0.8-0.8-1.6-0.8
			c-1.1,0-2.3,0.6-3.4,1.9v7c0,0.9,0.1,1.4,0.2,1.7c0.1,0.3,0.3,0.5,0.6,0.6c0.2,0.1,0.7,0.2,1.4,0.2v0.5h-6.6v-0.5h0.3
			c0.7,0,1.1-0.2,1.4-0.5c0.2-0.3,0.4-1,0.4-2v-4.9c0-1.6,0-2.6-0.1-2.9c-0.1-0.4-0.2-0.6-0.3-0.7c-0.1-0.1-0.4-0.2-0.6-0.2
			c-0.3,0-0.6,0.1-1,0.2l-0.2-0.5l4-1.6h0.6L70.5,133.8L70.5,133.8z M83.7,136.4c0,2,0.5,3.5,1.4,4.6c1,1.1,2.1,1.7,3.4,1.7
			c0.9,0,1.6-0.2,2.3-0.7c0.6-0.5,1.2-1.3,1.6-2.5l0.4,0.3c-0.2,1.3-0.8,2.5-1.8,3.6c-1,1.1-2.2,1.6-3.7,1.6c-1.6,0-3-0.6-4.1-1.9
			c-1.1-1.2-1.7-2.9-1.7-5c0-2.3,0.6-4,1.7-5.3c1.2-1.3,2.6-1.9,4.4-1.9c1.5,0,2.7,0.5,3.7,1.5c1,1,1.4,2.3,1.4,3.9L83.7,136.4
			L83.7,136.4z M83.7,135.6h6.1c0-0.9-0.1-1.4-0.3-1.8c-0.2-0.5-0.6-1-1.1-1.3c-0.5-0.3-1-0.5-1.5-0.5c-0.8,0-1.5,0.3-2.2,0.9
			C84.2,133.6,83.8,134.4,83.7,135.6L83.7,135.6z M128.4,125v0.5c-0.5,0-0.9,0.1-1.2,0.3c-0.3,0.2-0.6,0.5-0.9,1
			c-0.2,0.3-0.5,1.1-0.9,2.4l-5.5,15.9h-0.6l-4.5-12.6l-4.4,12.6h-0.5l-5.8-16.3c-0.4-1.2-0.7-1.9-0.8-2.2c-0.2-0.4-0.5-0.6-0.8-0.8
			c-0.3-0.2-0.8-0.3-1.4-0.3V125h7.3v0.5h-0.4c-0.5,0-0.9,0.1-1.2,0.4c-0.3,0.2-0.4,0.5-0.4,0.8c0,0.3,0.2,1.1,0.6,2.4l3.9,11
			l3.3-9.4l-0.6-1.7l-0.5-1.3c-0.2-0.5-0.4-0.9-0.7-1.3c-0.1-0.2-0.3-0.3-0.5-0.5c-0.2-0.2-0.5-0.3-0.7-0.4
			c-0.2-0.1-0.5-0.1-0.9-0.1V125h7.6v0.5h-0.5c-0.5,0-0.9,0.1-1.2,0.4c-0.3,0.2-0.4,0.5-0.4,1c0,0.5,0.2,1.4,0.7,2.6l3.8,10.7
			l3.7-10.8c0.4-1.2,0.6-2,0.6-2.5c0-0.2-0.1-0.4-0.2-0.6c-0.1-0.2-0.3-0.3-0.5-0.4c-0.4-0.1-0.8-0.2-1.4-0.2V125L128.4,125
			L128.4,125z M129.4,136.4c0,2,0.5,3.5,1.4,4.6c1,1.1,2.1,1.7,3.4,1.7c0.9,0,1.6-0.2,2.3-0.7c0.6-0.5,1.2-1.3,1.6-2.5l0.4,0.3
			c-0.2,1.3-0.8,2.5-1.8,3.6c-1,1.1-2.2,1.6-3.7,1.6c-1.6,0-3-0.6-4.1-1.9c-1.1-1.2-1.7-2.9-1.7-5c0-2.3,0.6-4,1.7-5.3
			c1.2-1.3,2.6-1.9,4.4-1.9c1.5,0,2.7,0.5,3.7,1.5c1,1,1.4,2.3,1.4,3.9L129.4,136.4L129.4,136.4z M129.4,135.6h6.1
			c0-0.9-0.1-1.4-0.3-1.8c-0.2-0.5-0.6-1-1.1-1.3c-0.5-0.3-1-0.5-1.5-0.5c-0.8,0-1.5,0.3-2.2,0.9
			C129.9,133.6,129.5,134.4,129.4,135.6L129.4,135.6z M145,124v17.6c0,0.8,0.1,1.4,0.2,1.6c0.1,0.3,0.3,0.5,0.6,0.6
			c0.2,0.1,0.7,0.2,1.4,0.2v0.5h-6.5v-0.5c0.6,0,1-0.1,1.2-0.2c0.2-0.1,0.4-0.3,0.5-0.6c0.1-0.3,0.2-0.8,0.2-1.7v-12.1
			c0-1.5,0-2.4-0.1-2.7c-0.1-0.3-0.2-0.6-0.3-0.7c-0.1-0.1-0.3-0.2-0.6-0.2c-0.2,0-0.6,0.1-1,0.2l-0.2-0.5l3.9-1.6H145L145,124z
			 M153.2,124v17.6c0,0.8,0.1,1.4,0.2,1.6c0.1,0.3,0.3,0.5,0.6,0.6c0.2,0.1,0.7,0.2,1.4,0.2v0.5h-6.5v-0.5c0.6,0,1-0.1,1.2-0.2
			c0.2-0.1,0.4-0.3,0.5-0.6c0.1-0.3,0.2-0.8,0.2-1.7v-12.1c0-1.5,0-2.4-0.1-2.7c-0.1-0.3-0.2-0.6-0.3-0.7c-0.1-0.1-0.3-0.2-0.6-0.2
			c-0.2,0-0.6,0.1-1,0.2l-0.2-0.5l3.9-1.6H153.2L153.2,124z M160.8,133.8c1.6-1.9,3-2.8,4.4-2.8c0.7,0,1.3,0.2,1.9,0.5
			c0.5,0.4,0.9,1,1.2,1.8c0.2,0.6,0.3,1.5,0.3,2.7v5.7c0,0.8,0.1,1.4,0.2,1.7c0.1,0.2,0.3,0.4,0.5,0.6c0.2,0.1,0.7,0.2,1.3,0.2v0.5
			h-6.6v-0.5h0.3c0.6,0,1-0.1,1.3-0.3c0.2-0.2,0.4-0.5,0.5-0.8c0-0.1,0.1-0.6,0.1-1.4v-5.5c0-1.2-0.2-2.1-0.5-2.6
			c-0.3-0.5-0.8-0.8-1.6-0.8c-1.1,0-2.3,0.6-3.4,1.9v7c0,0.9,0.1,1.4,0.2,1.7c0.1,0.3,0.3,0.5,0.6,0.6c0.2,0.1,0.7,0.2,1.4,0.2v0.5
			h-6.6v-0.5h0.3c0.7,0,1.1-0.2,1.4-0.5c0.2-0.3,0.4-1,0.4-2v-4.9c0-1.6,0-2.6-0.1-2.9c-0.1-0.4-0.2-0.6-0.3-0.7
			c-0.1-0.1-0.4-0.2-0.6-0.2c-0.3,0-0.6,0.1-1,0.2l-0.2-0.5l4-1.6h0.6V133.8L160.8,133.8z M173.9,136.4c0,2,0.5,3.5,1.4,4.6
			c1,1.1,2.1,1.7,3.4,1.7c0.9,0,1.6-0.2,2.3-0.7c0.6-0.5,1.2-1.3,1.6-2.5l0.4,0.3c-0.2,1.3-0.8,2.5-1.8,3.6c-1,1.1-2.2,1.6-3.7,1.6
			c-1.6,0-3-0.6-4.1-1.9c-1.1-1.2-1.7-2.9-1.7-5c0-2.3,0.6-4,1.7-5.3c1.2-1.3,2.6-1.9,4.4-1.9c1.5,0,2.7,0.5,3.7,1.5
			c1,1,1.4,2.3,1.4,3.9L173.9,136.4L173.9,136.4z M173.9,135.6h6.1c0-0.9-0.1-1.4-0.3-1.8c-0.2-0.5-0.6-1-1.1-1.3
			c-0.5-0.3-1-0.5-1.5-0.5c-0.8,0-1.5,0.3-2.2,0.9C174.4,133.6,174.1,134.4,173.9,135.6L173.9,135.6z M193.5,131v4.5H193
			c-0.4-1.4-0.8-2.4-1.4-2.9c-0.6-0.5-1.3-0.8-2.2-0.8c-0.7,0-1.2,0.2-1.6,0.5c-0.4,0.4-0.6,0.8-0.6,1.2c0,0.5,0.2,1,0.5,1.4
			c0.3,0.4,0.9,0.8,1.8,1.3l2.1,1c2,1,2.9,2.2,2.9,3.8c0,1.2-0.5,2.2-1.4,2.9c-0.9,0.7-1.9,1.1-3.1,1.1c-0.8,0-1.7-0.1-2.8-0.4
			c-0.3-0.1-0.6-0.1-0.8-0.1c-0.2,0-0.4,0.1-0.5,0.4h-0.5v-4.8h0.5c0.3,1.4,0.8,2.4,1.6,3.1c0.8,0.7,1.6,1,2.6,1
			c0.7,0,1.2-0.2,1.6-0.6c0.4-0.4,0.6-0.9,0.6-1.4c0-0.7-0.2-1.2-0.7-1.7c-0.5-0.5-1.4-1-2.8-1.7c-1.4-0.7-2.3-1.3-2.8-1.9
			c-0.4-0.5-0.6-1.2-0.6-2.1c0-1.1,0.4-2,1.1-2.7c0.7-0.7,1.7-1.1,2.9-1.1c0.5,0,1.2,0.1,1.9,0.3c0.5,0.1,0.8,0.2,1,0.2
			c0.2,0,0.3,0,0.4-0.1c0.1-0.1,0.2-0.2,0.3-0.5H193.5L193.5,131z M205,131v4.5h-0.5c-0.4-1.4-0.8-2.4-1.4-2.9
			c-0.6-0.5-1.3-0.8-2.2-0.8c-0.7,0-1.2,0.2-1.6,0.5c-0.4,0.4-0.6,0.8-0.6,1.2c0,0.5,0.2,1,0.5,1.4c0.3,0.4,0.9,0.8,1.8,1.3l2.1,1
			c2,1,2.9,2.2,2.9,3.8c0,1.2-0.5,2.2-1.4,2.9c-0.9,0.7-1.9,1.1-3.1,1.1c-0.8,0-1.7-0.1-2.8-0.4c-0.3-0.1-0.6-0.1-0.8-0.1
			c-0.2,0-0.4,0.1-0.5,0.4H197v-4.8h0.5c0.3,1.4,0.8,2.4,1.6,3.1c0.8,0.7,1.6,1,2.6,1c0.7,0,1.2-0.2,1.6-0.6
			c0.4-0.4,0.6-0.9,0.6-1.4c0-0.7-0.2-1.2-0.7-1.7c-0.5-0.5-1.4-1-2.8-1.7c-1.4-0.7-2.3-1.3-2.8-1.9c-0.4-0.5-0.6-1.2-0.6-2.1
			c0-1.1,0.4-2,1.1-2.7c0.7-0.7,1.7-1.1,2.9-1.1c0.5,0,1.2,0.1,1.9,0.3c0.5,0.1,0.8,0.2,1,0.2c0.2,0,0.3,0,0.4-0.1
			c0.1-0.1,0.2-0.2,0.3-0.5H205L205,131z"/>
		<path class="st3" d="M23.6,153.3l0.2,2.4h-0.2c-0.2-0.7-0.5-1.2-0.9-1.6c-0.4-0.3-0.9-0.5-1.4-0.5c-0.5,0-0.9,0.1-1.3,0.4
			c-0.4,0.2-0.7,0.6-0.9,1.1c-0.2,0.5-0.3,1.2-0.3,2c0,0.6,0.1,1.2,0.3,1.7c0.2,0.5,0.5,0.8,0.9,1.1c0.4,0.3,0.9,0.4,1.4,0.4
			c0.5,0,0.9-0.1,1.2-0.3c0.4-0.2,0.7-0.6,1.2-1.2l0.2,0.1c-0.4,0.6-0.8,1.1-1.2,1.4c-0.5,0.3-1,0.4-1.7,0.4c-1.2,0-2.1-0.4-2.7-1.3
			c-0.5-0.6-0.7-1.4-0.7-2.3c0-0.7,0.2-1.4,0.5-2c0.3-0.6,0.8-1.1,1.3-1.4c0.6-0.3,1.2-0.5,1.8-0.5c0.5,0,1,0.1,1.5,0.4
			c0.1,0.1,0.2,0.1,0.3,0.1c0.1,0,0.2,0,0.2-0.1c0.1-0.1,0.2-0.2,0.2-0.4L23.6,153.3L23.6,153.3z M31.8,156.8h3.3v-2
			c0-0.4,0-0.6-0.1-0.7c0-0.1-0.1-0.2-0.2-0.2c-0.1-0.1-0.3-0.1-0.5-0.1h-0.3v-0.2h3v0.2h-0.3c-0.2,0-0.3,0-0.5,0.1
			c-0.1,0.1-0.2,0.1-0.2,0.3c0,0.1-0.1,0.3-0.1,0.7v4.6c0,0.4,0,0.6,0.1,0.7c0,0.1,0.1,0.2,0.2,0.2c0.2,0.1,0.3,0.1,0.5,0.1h0.3v0.2
			h-3v-0.2h0.3c0.3,0,0.5-0.1,0.6-0.3c0.1-0.1,0.1-0.4,0.1-0.8v-2.2h-3.3v2.2c0,0.4,0,0.6,0.1,0.7c0,0.1,0.1,0.2,0.2,0.2
			c0.1,0.1,0.3,0.1,0.5,0.1h0.3v0.2h-3v-0.2H30c0.3,0,0.5-0.1,0.6-0.3c0.1-0.1,0.1-0.4,0.1-0.8v-4.6c0-0.4,0-0.6-0.1-0.7
			c0-0.1-0.1-0.2-0.2-0.2c-0.2-0.1-0.3-0.1-0.5-0.1h-0.3v-0.2h3v0.2h-0.3c-0.2,0-0.3,0-0.5,0.1c-0.1,0.1-0.2,0.1-0.2,0.3
			c0,0.1-0.1,0.3-0.1,0.7C31.8,154.7,31.8,156.8,31.8,156.8z M47.5,158.2h-2.7l-0.5,1.1c-0.1,0.3-0.2,0.5-0.2,0.6
			c0,0.1,0.1,0.2,0.2,0.3c0.1,0.1,0.3,0.1,0.7,0.2v0.2h-2.2v-0.2c0.3-0.1,0.5-0.1,0.6-0.2c0.2-0.2,0.4-0.5,0.6-1l2.5-5.8h0.2
			l2.5,5.9c0.2,0.5,0.4,0.8,0.5,0.9c0.2,0.1,0.4,0.2,0.7,0.2v0.2h-2.8v-0.2c0.3,0,0.5-0.1,0.6-0.1c0.1-0.1,0.1-0.2,0.1-0.3
			c0-0.2-0.1-0.4-0.2-0.7L47.5,158.2z M47.3,157.8l-1.2-2.9l-1.2,2.9C44.9,157.8,47.3,157.8,47.3,157.8z M55.4,153.5h1.9l4.3,5.3
			v-4.1c0-0.4,0-0.7-0.1-0.8c-0.1-0.1-0.3-0.2-0.6-0.2h-0.2v-0.2h2.5v0.2h-0.3c-0.3,0-0.5,0.1-0.6,0.3c-0.1,0.1-0.1,0.4-0.1,0.8v6
			H62l-4.7-5.7v4.4c0,0.4,0,0.7,0.1,0.8c0.1,0.1,0.3,0.2,0.6,0.2h0.3v0.2h-2.5v-0.2h0.2c0.3,0,0.5-0.1,0.7-0.3
			c0.1-0.1,0.1-0.4,0.1-0.8v-4.9c-0.2-0.2-0.4-0.4-0.5-0.5c-0.1-0.1-0.3-0.1-0.5-0.2c-0.1,0-0.3,0-0.5,0V153.5L55.4,153.5z
			 M75.1,153.3l0.2,2.2h-0.2c-0.2-0.6-0.4-1-0.7-1.3c-0.4-0.4-1-0.6-1.6-0.6c-0.9,0-1.6,0.4-2.1,1.1c-0.4,0.6-0.6,1.3-0.6,2.2
			c0,0.7,0.1,1.3,0.4,1.9c0.3,0.6,0.6,1,1,1.2c0.4,0.3,0.9,0.4,1.3,0.4c0.3,0,0.5,0,0.8-0.1c0.2-0.1,0.5-0.2,0.7-0.3v-2.1
			c0-0.4,0-0.6-0.1-0.7c-0.1-0.1-0.1-0.2-0.3-0.3c-0.1-0.1-0.3-0.1-0.6-0.1v-0.2h2.7v0.2H76c-0.3,0-0.5,0.1-0.6,0.3
			c-0.1,0.1-0.1,0.4-0.1,0.8v2.2c-0.4,0.2-0.8,0.4-1.2,0.5c-0.4,0.1-0.8,0.2-1.3,0.2c-1.4,0-2.4-0.4-3.1-1.3
			c-0.5-0.7-0.8-1.4-0.8-2.3c0-0.6,0.1-1.2,0.4-1.8c0.4-0.7,0.8-1.2,1.5-1.6c0.5-0.3,1.1-0.5,1.8-0.5c0.3,0,0.5,0,0.7,0.1
			c0.2,0,0.5,0.1,0.9,0.3c0.2,0.1,0.3,0.1,0.4,0.1c0.1,0,0.1,0,0.2-0.1c0-0.1,0.1-0.2,0.1-0.4L75.1,153.3L75.1,153.3z M83.8,153.9
			v2.8h1.6c0.4,0,0.7-0.1,0.8-0.2c0.2-0.2,0.3-0.4,0.3-0.8h0.2v2.5h-0.2c0-0.3-0.1-0.6-0.1-0.7c-0.1-0.1-0.2-0.2-0.3-0.3
			c-0.1-0.1-0.4-0.1-0.7-0.1h-1.6v2.3c0,0.3,0,0.5,0,0.6c0,0.1,0.1,0.1,0.1,0.2c0.1,0,0.2,0.1,0.4,0.1h1.2c0.4,0,0.7,0,0.9-0.1
			c0.2-0.1,0.4-0.2,0.5-0.3c0.2-0.2,0.4-0.5,0.7-1h0.2l-0.6,1.8h-5.5v-0.2H82c0.2,0,0.3,0,0.5-0.1c0.1-0.1,0.2-0.1,0.2-0.3
			c0-0.1,0.1-0.3,0.1-0.7v-4.6c0-0.4,0-0.7-0.1-0.8c-0.1-0.1-0.3-0.2-0.6-0.2h-0.3v-0.2h5.5l0.1,1.6h-0.2c-0.1-0.4-0.2-0.6-0.2-0.8
			c-0.1-0.1-0.2-0.2-0.4-0.3c-0.1-0.1-0.4-0.1-0.7-0.1C85.7,153.9,83.8,153.9,83.8,153.9z M100.7,153.5h2.5v0.2h-0.1
			c-0.1,0-0.2,0-0.4,0.1c-0.2,0.1-0.3,0.2-0.5,0.3c-0.1,0.2-0.3,0.4-0.5,0.7l-1.7,2.7v1.8c0,0.4,0,0.7,0.1,0.8
			c0.1,0.1,0.3,0.2,0.6,0.2h0.2v0.2h-3v-0.2h0.3c0.3,0,0.5-0.1,0.6-0.3c0.1-0.1,0.1-0.4,0.1-0.8v-1.7l-1.9-3
			c-0.2-0.3-0.4-0.6-0.5-0.6c-0.1-0.1-0.3-0.2-0.5-0.3c-0.1,0-0.2-0.1-0.3-0.1v-0.2h3v0.2h-0.2c-0.2,0-0.3,0-0.5,0.1
			c-0.1,0.1-0.2,0.2-0.2,0.3c0,0.1,0.1,0.4,0.3,0.7l1.5,2.3l1.4-2.2c0.2-0.3,0.3-0.6,0.3-0.7c0-0.1,0-0.2-0.1-0.3
			c-0.1-0.1-0.1-0.1-0.2-0.2c-0.1,0-0.2-0.1-0.4-0.1V153.5L100.7,153.5z M112.5,153.3c0.9,0,1.7,0.3,2.4,1c0.7,0.7,1,1.6,1,2.6
			c0,1.1-0.3,2-1,2.7c-0.7,0.7-1.5,1.1-2.5,1.1c-1,0-1.8-0.3-2.5-1c-0.7-0.7-1-1.6-1-2.7c0-1.1,0.4-2,1.1-2.8
			C110.8,153.6,111.6,153.3,112.5,153.3z M112.4,153.7c-0.6,0-1.1,0.2-1.5,0.7c-0.5,0.6-0.7,1.4-0.7,2.6c0,1.2,0.2,2.1,0.7,2.7
			c0.4,0.5,0.9,0.7,1.5,0.7c0.7,0,1.2-0.3,1.6-0.8c0.4-0.5,0.6-1.3,0.6-2.5c0-1.2-0.2-2.1-0.7-2.7
			C113.6,153.9,113.1,153.7,112.4,153.7L112.4,153.7z M126.7,153.7v-0.2h2.5v0.2h-0.3c-0.3,0-0.5,0.1-0.6,0.3
			c-0.1,0.1-0.1,0.4-0.1,0.8v2.9c0,0.7-0.1,1.3-0.2,1.7c-0.1,0.4-0.4,0.7-0.8,1c-0.4,0.3-1,0.4-1.7,0.4c-0.8,0-1.4-0.1-1.8-0.4
			c-0.4-0.3-0.7-0.6-0.9-1.1c-0.1-0.3-0.2-0.9-0.2-1.7v-2.8c0-0.4-0.1-0.7-0.2-0.9c-0.1-0.1-0.3-0.2-0.6-0.2h-0.3v-0.2h3.1v0.2h-0.3
			c-0.3,0-0.5,0.1-0.6,0.3c-0.1,0.1-0.1,0.4-0.1,0.8v3.1c0,0.3,0,0.6,0.1,0.9c0.1,0.4,0.1,0.6,0.3,0.8c0.1,0.2,0.3,0.4,0.6,0.5
			c0.2,0.1,0.6,0.2,0.9,0.2c0.5,0,0.9-0.1,1.2-0.3c0.4-0.2,0.6-0.5,0.7-0.8c0.1-0.3,0.2-0.9,0.2-1.6v-2.9c0-0.4,0-0.7-0.1-0.8
			c-0.1-0.2-0.3-0.2-0.6-0.2H126.7L126.7,153.7z M141.8,160.6h-1.9l-2.4-3.3c-0.2,0-0.3,0-0.4,0c0,0-0.1,0-0.1,0c-0.1,0-0.1,0-0.2,0
			v2.1c0,0.4,0,0.7,0.1,0.8c0.1,0.2,0.3,0.2,0.6,0.2h0.3v0.2h-3v-0.2h0.3c0.3,0,0.5-0.1,0.6-0.3c0.1-0.1,0.1-0.4,0.1-0.8v-4.6
			c0-0.4,0-0.7-0.1-0.8c-0.1-0.2-0.3-0.2-0.6-0.2h-0.3v-0.2h2.6c0.8,0,1.3,0.1,1.7,0.2c0.4,0.1,0.7,0.3,0.9,0.6
			c0.2,0.3,0.4,0.6,0.4,1.1c0,0.4-0.1,0.8-0.4,1.1c-0.3,0.3-0.7,0.5-1.3,0.7l1.5,2c0.3,0.5,0.6,0.8,0.9,0.9c0.2,0.2,0.6,0.3,0.9,0.3
			V160.6L141.8,160.6z M136.8,156.9c0.1,0,0.1,0,0.2,0c0,0,0.1,0,0.1,0c0.7,0,1.2-0.1,1.5-0.4c0.3-0.3,0.5-0.7,0.5-1.1
			c0-0.4-0.1-0.8-0.4-1.1c-0.3-0.3-0.6-0.4-1.1-0.4c-0.2,0-0.5,0-0.8,0.1L136.8,156.9L136.8,156.9z M158.5,158.6l0.2,0l-0.6,1.9
			h-5.5v-0.2h0.3c0.3,0,0.5-0.1,0.6-0.3c0.1-0.1,0.1-0.4,0.1-0.8v-4.6c0-0.4,0-0.7-0.1-0.8c-0.1-0.2-0.3-0.2-0.6-0.2h-0.3v-0.2h3.2
			v0.2c-0.4,0-0.6,0-0.8,0.1c-0.2,0.1-0.3,0.2-0.3,0.3c-0.1,0.1-0.1,0.4-0.1,0.8v4.5c0,0.3,0,0.5,0.1,0.6c0,0.1,0.1,0.1,0.2,0.2
			c0.1,0,0.4,0.1,0.8,0.1h0.5c0.5,0,0.9,0,1.1-0.1c0.2-0.1,0.4-0.2,0.6-0.4C158.1,159.4,158.3,159.1,158.5,158.6L158.5,158.6z
			 M167.4,160.4v0.2h-3v-0.2h0.3c0.3,0,0.5-0.1,0.6-0.3c0.1-0.1,0.1-0.4,0.1-0.8v-4.6c0-0.4,0-0.6-0.1-0.7c0-0.1-0.1-0.2-0.2-0.2
			c-0.2-0.1-0.3-0.1-0.5-0.1h-0.3v-0.2h3v0.2h-0.3c-0.3,0-0.5,0.1-0.6,0.3c-0.1,0.1-0.1,0.4-0.1,0.8v4.6c0,0.4,0,0.6,0.1,0.7
			c0,0.1,0.1,0.2,0.2,0.2c0.1,0.1,0.3,0.1,0.5,0.1H167.4z M175.1,153.9v2.8h1.3c0.3,0,0.5-0.1,0.7-0.2c0.1-0.1,0.2-0.4,0.3-0.8h0.2
			v2.4h-0.2c0-0.3,0-0.5-0.1-0.6c-0.1-0.1-0.2-0.2-0.3-0.3c-0.1-0.1-0.3-0.1-0.5-0.1h-1.3v2.2c0,0.4,0,0.6,0.1,0.7
			c0,0.1,0.1,0.2,0.2,0.2c0.2,0.1,0.3,0.1,0.5,0.1h0.3v0.2h-3v-0.2h0.3c0.3,0,0.5-0.1,0.6-0.3c0.1-0.1,0.1-0.4,0.1-0.8v-4.6
			c0-0.4,0-0.6-0.1-0.7c0-0.1-0.1-0.2-0.2-0.2c-0.2-0.1-0.3-0.1-0.5-0.1h-0.3v-0.2h5.3l0.1,1.6h-0.2c-0.1-0.3-0.2-0.6-0.3-0.7
			c-0.1-0.2-0.3-0.3-0.4-0.3c-0.2-0.1-0.4-0.1-0.8-0.1L175.1,153.9L175.1,153.9z M186.4,153.9v2.8h1.6c0.4,0,0.7-0.1,0.8-0.2
			c0.2-0.2,0.3-0.4,0.3-0.8h0.2v2.5h-0.2c0-0.3-0.1-0.6-0.1-0.7c-0.1-0.1-0.2-0.2-0.3-0.3c-0.1-0.1-0.4-0.1-0.7-0.1h-1.6v2.3
			c0,0.3,0,0.5,0,0.6c0,0.1,0.1,0.1,0.1,0.2c0.1,0,0.2,0.1,0.4,0.1h1.2c0.4,0,0.7,0,0.9-0.1c0.2-0.1,0.4-0.2,0.5-0.3
			c0.2-0.2,0.4-0.5,0.7-1h0.2l-0.6,1.8h-5.5v-0.2h0.3c0.2,0,0.3,0,0.5-0.1c0.1-0.1,0.2-0.1,0.2-0.3c0-0.1,0.1-0.3,0.1-0.7v-4.6
			c0-0.4,0-0.7-0.1-0.8c-0.1-0.1-0.3-0.2-0.6-0.2h-0.3v-0.2h5.5l0.1,1.6h-0.2c-0.1-0.4-0.2-0.6-0.2-0.8s-0.2-0.2-0.4-0.3
			c-0.1-0.1-0.4-0.1-0.7-0.1H186.4L186.4,153.9z"/>
	</g>
</g>
</svg>
