<svg width="438" height="403" viewBox="0 0 438 403" fill="none" xmlns="http://www.w3.org/2000/svg">
<g clip-path="url(#clip0_65_149)">
<path d="M218.88 0C98.19 0 0 98.19 0 218.88C0.0574127 268.54 16.982 316.708 48 355.49L78.59 320.81C56.9563 291.254 45.3343 255.558 45.42 218.93C45.42 123.29 123.23 45.47 218.88 45.47C314.53 45.47 392.34 123.29 392.34 218.93C392.426 255.558 380.804 291.254 359.17 320.81L389.75 355.54C420.768 316.758 437.693 268.59 437.75 218.93C437.76 98.19 339.57 0 218.88 0Z" fill="#FC7B10"/>
<path d="M364.93 218.88C364.93 138.35 299.41 72.88 218.93 72.88C138.45 72.88 72.93 138.4 72.93 218.93C72.8939 247.654 81.3898 275.742 97.34 299.63L117.45 276.79C107.304 259.011 102.004 238.879 102.081 218.409C102.158 197.938 107.609 177.847 117.888 160.145C128.168 142.442 142.916 127.75 160.657 117.537C178.398 107.323 198.509 101.948 218.98 101.948C239.451 101.948 259.562 107.323 277.303 117.537C295.044 127.75 309.792 142.442 320.072 160.145C330.351 177.847 335.802 197.938 335.879 218.409C335.956 238.879 330.656 259.011 320.51 276.79L340.62 299.64C356.543 275.722 365.003 247.613 364.93 218.88Z" fill="#FC7B10"/>
<path d="M100.65 402.93L218.88 362.44L337.11 402.93C345.813 397.321 354.111 391.106 361.94 384.33L218.88 221.81L75.8199 384.33C83.6493 391.106 91.9465 397.321 100.65 402.93Z" fill="white"/>
</g>
<defs>
<clipPath id="clip0_65_149">
<rect width="437.75" height="402.93" fill="white"/>
</clipPath>
</defs>
</svg>
