<?xml version="1.0" encoding="utf-8"?>
<!-- Generator: Adobe Illustrator 19.0.0, SVG Export Plug-In . SVG Version: 6.00 Build 0)  -->
<svg version="1.1" id="Layer_1" xmlns="http://www.w3.org/2000/svg" xmlns:xlink="http://www.w3.org/1999/xlink" x="0px" y="0px"
	 viewBox="-399 285.3 43 25" style="enable-background:new -399 285.3 43 25;" xml:space="preserve">
<style type="text/css">
	.st0{fill:none;stroke:#F15F21;stroke-width:1.2;stroke-linecap:round;}
	.st1{fill:#FFFFFF;}
	.st2{fill:#F8AE1A;}
	.st3{fill:none;stroke:#F15F21;stroke-width:1.2;stroke-linecap:round;stroke-linejoin:round;}
</style>
<path class="st0" d="M-398,309.7h33.8 M-361,309.7h3.6"/>
<path class="st1" d="M-389.4,286.8h16.8c2.2,0,4.1,1.8,4.1,4.1v13c0,2.2-1.8,4.1-4.1,4.1h-16.8c-2.2,0-4.1-1.8-4.1-4.1v-13
	C-393.5,288.6-391.6,286.8-389.4,286.8z"/>
<path class="st2" d="M-390.9,308.9c-1.5,0-2.7-1.7-2.7-3.4h24.9c0,1.6-1.2,3.4-2.7,3.4H-390.9L-390.9,308.9z"/>
<path class="st3" d="M-372.7,309.3h-17.2c-2.1,0-3.9-1.9-3.9-4.3v-14.1c0-2.4,1.7-4.3,3.9-4.3h17.2c2.1,0,3.9,1.9,3.9,4.3V305
	C-368.8,307.3-370.5,309.3-372.7,309.3L-372.7,309.3z"/>
<path class="st3" d="M-369,301h-3.9c-1.3,0-2.3-1.1-2.3-2.5v-0.9c0-1.4,1-2.5,2.3-2.5h3.9V301z"/>
<path class="st2" d="M-371.2,298.1c0,0.6-0.4,1-1,1c-0.5,0-0.9-0.5-0.9-1c0-0.6,0.4-1,0.9-1C-371.6,297.1-371.2,297.5-371.2,298.1"
	/>
</svg>
